  0
SECTION
  2
HEADER
  9
$ACADVER
  1
AC1009
  9
$DWGCODEPAGE
  3
ansi_1252
  9
$INSBASE
 10
0.0
 20
0.0
 30
0.0
  9
$EXTMIN
 10
-110.2387912340691
 20
107.5724794120275
 30
-17.99999999999999
  9
$EXTMAX
 10
193.3774031809239
 20
282.132813995524
 30
0.0
  9
$LIMMIN
 10
0.0
 20
0.0
  9
$LIMMAX
 10
12.0
 20
9.0
  9
$ORTHOMODE
 70
     0
  9
$REGENMODE
 70
     1
  9
$FILLMODE
 70
     1
  9
$QTEXTMODE
 70
     0
  9
$MIRRTEXT
 70
     1
  9
$DRAGMODE
 70
     2
  9
$LTSCALE
 40
1.0
  9
$OSMODE
 70
    37
  9
$ATTMODE
 70
     1
  9
$TEXTSIZE
 40
0.2
  9
$TRACEWID
 40
0.05
  9
$TEXTSTYLE
  7
STANDARD
  9
$CLAYER
  8
DEFAULT
  9
$CELTYPE
  6
BYLAYER
  9
$CECOLOR
 62
   256
  9
$DIMSCALE
 40
1.0
  9
$DIMASZ
 40
0.18
  9
$DIMEXO
 40
0.0625
  9
$DIMDLI
 40
0.38
  9
$DIMRND
 40
0.0
  9
$DIMDLE
 40
0.0
  9
$DIMEXE
 40
0.18
  9
$DIMTP
 40
0.0
  9
$DIMTM
 40
0.0
  9
$DIMTXT
 40
0.18
  9
$DIMCEN
 40
0.09
  9
$DIMTSZ
 40
0.0
  9
$DIMTOL
 70
     0
  9
$DIMLIM
 70
     0
  9
$DIMTIH
 70
     1
  9
$DIMTOH
 70
     1
  9
$DIMSE1
 70
     0
  9
$DIMSE2
 70
     0
  9
$DIMTAD
 70
     0
  9
$DIMZIN
 70
     0
  9
$DIMBLK
  1

  9
$DIMASO
 70
     1
  9
$DIMSHO
 70
     1
  9
$DIMPOST
  1

  9
$DIMAPOST
  1

  9
$DIMALT
 70
     0
  9
$DIMALTD
 70
     2
  9
$DIMALTF
 40
25.4
  9
$DIMLFAC
 40
1.0
  9
$DIMTOFL
 70
     0
  9
$DIMTVP
 40
0.0
  9
$DIMTIX
 70
     0
  9
$DIMSOXD
 70
     0
  9
$DIMSAH
 70
     0
  9
$DIMBLK1
  1

  9
$DIMBLK2
  1

  9
$DIMSTYLE
  2
STANDARD_ACAD
  9
$DIMCLRD
 70
     0
  9
$DIMCLRE
 70
     0
  9
$DIMCLRT
 70
     0
  9
$DIMTFAC
 40
1.0
  9
$DIMGAP
 40
0.09
  9
$LUNITS
 70
     2
  9
$LUPREC
 70
     3
  9
$SKETCHINC
 40
0.1
  9
$FILLETRAD
 40
0.0
  9
$AUNITS
 70
     0
  9
$AUPREC
 70
     0
  9
$MENU
  1
.
  9
$ELEVATION
 40
0.0
  9
$PELEVATION
 40
0.0
  9
$THICKNESS
 40
0.0
  9
$LIMCHECK
 70
     0
  9
$CHAMFERA
 40
0.0
  9
$CHAMFERB
 40
0.0
  9
$SKPOLY
 70
     0
  9
$TDCREATE
 40
2461025.798415069
  9
$TDUPDATE
 40
2461025.798429792
  9
$TDINDWG
 40
0.0000000116
  9
$TDUSRTIMER
 40
0.0000000116
  9
$USRTIMER
 70
     1
  9
$ANGBASE
 50
0.0
  9
$ANGDIR
 70
     0
  9
$PDMODE
 70
     0
  9
$PDSIZE
 40
0.0
  9
$PLINEWID
 40
0.0
  9
$COORDS
 70
     1
  9
$SPLFRAME
 70
     0
  9
$SPLINETYPE
 70
     6
  9
$SPLINESEGS
 70
     8
  9
$ATTDIA
 70
     0
  9
$ATTREQ
 70
     1
  9
$HANDLING
 70
     1
  9
$HANDSEED
  5
56E
  9
$SURFTAB1
 70
     6
  9
$SURFTAB2
 70
     6
  9
$SURFTYPE
 70
     6
  9
$SURFU
 70
     6
  9
$SURFV
 70
     6
  9
$UCSNAME
  2

  9
$UCSORG
 10
0.0
 20
0.0
 30
0.0
  9
$UCSXDIR
 10
1.0
 20
0.0
 30
0.0
  9
$UCSYDIR
 10
0.0
 20
1.0
 30
0.0
  9
$PUCSNAME
  2

  9
$PUCSORG
 10
0.0
 20
0.0
 30
0.0
  9
$PUCSXDIR
 10
1.0
 20
0.0
 30
0.0
  9
$PUCSYDIR
 10
0.0
 20
1.0
 30
0.0
  9
$USERI1
 70
     0
  9
$USERI2
 70
     0
  9
$USERI3
 70
     0
  9
$USERI4
 70
     0
  9
$USERI5
 70
     0
  9
$USERR1
 40
0.0
  9
$USERR2
 40
0.0
  9
$USERR3
 40
0.0
  9
$USERR4
 40
0.0
  9
$USERR5
 40
0.0
  9
$WORLDVIEW
 70
     1
  9
$SHADEDGE
 70
     3
  9
$SHADEDIF
 70
    70
  9
$TILEMODE
 70
     1
  9
$MAXACTVP
 70
    64
  9
$PLIMCHECK
 70
     0
  9
$PEXTMIN
 10
1.000000000000000E+20
 20
1.000000000000000E+20
 30
1.000000000000000E+20
  9
$PEXTMAX
 10
-1.000000000000000E+20
 20
-1.000000000000000E+20
 30
-1.000000000000000E+20
  9
$PLIMMIN
 10
0.0
 20
0.0
  9
$PLIMMAX
 10
12.0
 20
9.0
  9
$UNITMODE
 70
     0
  9
$VISRETAIN
 70
     1
  9
$PLINEGEN
 70
     0
  9
$PSLTSCALE
 70
     1
  0
ENDSEC
  0
SECTION
  2
TABLES
  0
TABLE
  2
VPORT
 70
     1
  0
VPORT
  2
*ACTIVE
 70
     0
 10
0.0
 20
0.0
 11
1.0
 21
1.0
 12
10.42990654205607
 22
4.5
 13
0.0
 23
0.0
 14
0.5
 24
0.5
 15
0.5
 25
0.5
 16
0.0
 26
0.0
 36
1.0
 17
0.0
 27
0.0
 37
0.0
 40
9.0
 41
1.972972972850329
 42
50.0
 43
0.0
 44
0.0
 50
0.0
 51
0.0
 71
     0
 72
   100
 73
     1
 74
     3
 75
     0
 76
     0
 77
     0
 78
     0
  0
ENDTAB
  0
TABLE
  2
LTYPE
 70
     1
  0
LTYPE
  2
CONTINUOUS
 70
     0
  3
Solid line
 72
    65
 73
     0
 40
0.0
  0
ENDTAB
  0
TABLE
  2
LAYER
 70
     2
  0
LAYER
  2
0
 70
     0
 62
     7
  6
CONTINUOUS
  0
LAYER
  2
DEFAULT
 70
     0
 62
     7
  6
CONTINUOUS
  0
ENDTAB
  0
TABLE
  2
STYLE
 70
     1
  0
STYLE
  2
STANDARD
 70
     0
 40
0.0
 41
1.0
 50
0.0
 71
     0
 42
0.2
  3
txt
  4

  0
ENDTAB
  0
TABLE
  2
VIEW
 70
     0
  0
ENDTAB
  0
TABLE
  2
UCS
 70
     0
  0
ENDTAB
  0
TABLE
  2
APPID
 70
     2
  0
APPID
  2
ACAD
 70
     0
  0
APPID
  2
RHINO
 70
     0
  0
ENDTAB
  0
TABLE
  2
DIMSTYLE
 70
     1
  0
DIMSTYLE
  2
STANDARD_ACAD
 70
     0
  3

  4

  5

  6

  7

 40
1.0
 41
0.18
 42
0.0625
 43
0.38
 44
0.18
 45
0.0
 46
0.0
 47
0.0
 48
0.0
140
0.18
141
0.09
142
0.0
143
25.4
144
1.0
145
0.0
146
1.0
147
0.09
 71
     0
 72
     0
 73
     1
 74
     1
 75
     0
 76
     0
 77
     0
 78
     0
170
     0
171
     2
172
     0
173
     0
174
     0
175
     0
176
     0
177
     0
178
     0
  0
ENDTAB
  0
ENDSEC
  0
SECTION
  2
BLOCKS
  0
BLOCK
  8
0
  2
$MODEL_SPACE
 70
     0
 10
0.0
 20
0.0
 30
0.0
  3
$MODEL_SPACE
  1

  0
ENDBLK
  5
21
  8
0
  0
BLOCK
 67
     1
  8
0
  2
$PAPER_SPACE
 70
     0
 10
0.0
 20
0.0
 30
0.0
  3
$PAPER_SPACE
  1

  0
ENDBLK
  5
1D
 67
     1
  8
0
  0
ENDSEC
  0
SECTION
  2
ENTITIES
  0
POLYLINE
  5
60
  8
DEFAULT
 66
     1
 10
0.0
 20
0.0
 30
0.0
 70
     1
  0
VERTEX
  5
61
  8
DEFAULT
 10
-84.90826387622485
 20
159.4179975337429
 30
0.0
  0
VERTEX
  5
62
  8
DEFAULT
 10
-84.90826387622484
 20
162.2032756880407
 30
0.0
 42
2.380476142847611
  0
SEQEND
  5
63
  8
DEFAULT
  0
CIRCLE
  5
64
  8
DEFAULT
 10
-86.2733232110044
 20
160.8106366108919
 30
0.0
 40
6.439509605819277
  0
POLYLINE
  5
65
  8
DEFAULT
 66
     1
 10
0.0
 20
0.0
 30
0.0
 70
     1
  0
VERTEX
  5
66
  8
DEFAULT
 10
193.3774031809238
 20
194.5724794120275
 30
0.0
  0
VERTEX
  5
67
  8
DEFAULT
 10
193.3774031809239
 20
110.5724794120276
 30
0.0
  0
VERTEX
  5
68
  8
DEFAULT
 10
193.3759841135411
 20
110.1988984794103
 30
0.0
  0
VERTEX
  5
69
  8
DEFAULT
 10
193.3664168527989
 20
109.8334657401525
 30
0.0
  0
VERTEX
  5
6A
  8
DEFAULT
 10
193.3563031366734
 20
109.656079456278
 30
0.0
  0
VERTEX
  5
6B
  8
DEFAULT
 10
193.3415602854161
 20
109.4833223075353
 30
0.0
  0
VERTEX
  5
6C
  8
DEFAULT
 10
193.3322249463467
 20
109.3989076466046
 30
0.0
  0
VERTEX
  5
6D
  8
DEFAULT
 10
193.3214673212437
 20
109.3159152717076
 30
0.0
  0
VERTEX
  5
6E
  8
DEFAULT
 10
193.3092080167202
 20
109.2344245762311
 30
0.0
  0
VERTEX
  5
6F
  8
DEFAULT
 10
193.2953719309239
 20
109.1545106620274
 30
0.0
  0
VERTEX
  5
70
  8
DEFAULT
 10
193.2798882535367
 20
109.0762443394147
 30
0.0
  0
VERTEX
  5
71
  8
DEFAULT
 10
193.262690465775
 20
108.9996921271764
 30
0.0
  0
VERTEX
  5
72
  8
DEFAULT
 10
193.2437163403897
 20
108.9249162525616
 30
0.0
  0
VERTEX
  5
73
  8
DEFAULT
 10
193.2229079416661
 20
108.8519746512852
 30
0.0
  0
VERTEX
  5
74
  8
DEFAULT
 10
193.2002116254238
 20
108.7809209675275
 30
0.0
  0
VERTEX
  5
75
  8
DEFAULT
 10
193.1755780390171
 20
108.7118045539342
 30
0.0
  0
VERTEX
  5
76
  8
DEFAULT
 10
193.1625205202667
 20
108.6779870726846
 30
0.0
  0
VERTEX
  5
77
  8
DEFAULT
 10
193.1489621213345
 20
108.6446704716168
 30
0.0
  0
VERTEX
  5
78
  8
DEFAULT
 10
193.1348978801338
 20
108.6118597128175
 30
0.0
  0
VERTEX
  5
79
  8
DEFAULT
 10
193.1203231027989
 20
108.5795594901524
 30
0.0
  0
VERTEX
  5
7A
  8
DEFAULT
 10
193.1052333636848
 20
108.5477742292665
 30
0.0
  0
VERTEX
  5
7B
  8
DEFAULT
 10
193.0896245053677
 20
108.5165080875836
 30
0.0
  0
VERTEX
  5
7C
  8
DEFAULT
 10
193.0734926386444
 20
108.4857649543069
 30
0.0
  0
VERTEX
  5
7D
  8
DEFAULT
 10
193.0568341425328
 20
108.4555484504185
 30
0.0
  0
VERTEX
  5
7E
  8
DEFAULT
 10
193.0396456642715
 20
108.4258619286798
 30
0.0
  0
VERTEX
  5
7F
  8
DEFAULT
 10
193.0219241193203
 20
108.396708473631
 30
0.0
  0
VERTEX
  5
80
  8
DEFAULT
 10
193.0036666913597
 20
108.3680909015916
 30
0.0
  0
VERTEX
  5
81
  8
DEFAULT
 10
192.9848708322911
 20
108.3400117606603
 30
0.0
  0
VERTEX
  5
82
  8
DEFAULT
 10
192.9655342622368
 20
108.3124733307146
 30
0.0
  0
VERTEX
  5
83
  8
DEFAULT
 10
192.94565496954
 20
108.2854776234113
 30
0.0
  0
VERTEX
  5
84
  8
DEFAULT
 10
192.925231210765
 20
108.2590263821863
 30
0.0
  0
VERTEX
  5
85
  8
DEFAULT
 10
192.9042615106968
 20
108.2331210822545
 30
0.0
  0
VERTEX
  5
86
  8
DEFAULT
 10
192.8827446623412
 20
108.20776293061
 30
0.0
  0
VERTEX
  5
87
  8
DEFAULT
 10
192.8606797269252
 20
108.182952866026
 30
0.0
  0
VERTEX
  5
88
  8
DEFAULT
 10
192.8380660338966
 20
108.1586915590547
 30
0.0
  0
VERTEX
  5
89
  8
DEFAULT
 10
192.8149031809238
 20
108.1349794120274
 30
0.0
  0
VERTEX
  5
8A
  8
DEFAULT
 10
192.7911910338966
 20
108.1118165590547
 30
0.0
  0
VERTEX
  5
8B
  8
DEFAULT
 10
192.7669297269253
 20
108.089202866026
 30
0.0
  0
VERTEX
  5
8C
  8
DEFAULT
 10
192.7421196623412
 20
108.06713793061
 30
0.0
  0
VERTEX
  5
8D
  8
DEFAULT
 10
192.7167615106968
 20
108.0456210822545
 30
0.0
  0
VERTEX
  5
8E
  8
DEFAULT
 10
192.690856210765
 20
108.0246513821863
 30
0.0
  0
VERTEX
  5
8F
  8
DEFAULT
 10
192.66440496954
 20
108.0042276234113
 30
0.0
  0
VERTEX
  5
90
  8
DEFAULT
 10
192.6374092622367
 20
107.9843483307146
 30
0.0
  0
VERTEX
  5
91
  8
DEFAULT
 10
192.609870832291
 20
107.9650117606603
 30
0.0
  0
VERTEX
  5
92
  8
DEFAULT
 10
192.5817916913596
 20
107.9462159015916
 30
0.0
  0
VERTEX
  5
93
  8
DEFAULT
 10
192.5531741193203
 20
107.927958473631
 30
0.0
  0
VERTEX
  5
94
  8
DEFAULT
 10
192.5240206642715
 20
107.9102369286798
 30
0.0
  0
VERTEX
  5
95
  8
DEFAULT
 10
192.4943341425327
 20
107.8930484504186
 30
0.0
  0
VERTEX
  5
96
  8
DEFAULT
 10
192.4641176386443
 20
107.8763899543069
 30
0.0
  0
VERTEX
  5
97
  8
DEFAULT
 10
192.4333745053676
 20
107.8602580875836
 30
0.0
  0
VERTEX
  5
98
  8
DEFAULT
 10
192.4021083636848
 20
107.8446492292665
 30
0.0
  0
VERTEX
  5
99
  8
DEFAULT
 10
192.3703231027988
 20
107.8295594901525
 30
0.0
  0
VERTEX
  5
9A
  8
DEFAULT
 10
192.3380228801337
 20
107.8149847128175
 30
0.0
  0
VERTEX
  5
9B
  8
DEFAULT
 10
192.3052121213344
 20
107.8009204716169
 30
0.0
  0
VERTEX
  5
9C
  8
DEFAULT
 10
192.2718955202666
 20
107.7873620726846
 30
0.0
  0
VERTEX
  5
9D
  8
DEFAULT
 10
192.2380780390171
 20
107.7743045539342
 30
0.0
  0
VERTEX
  5
9E
  8
DEFAULT
 10
192.1689616254238
 20
107.7496709675275
 30
0.0
  0
VERTEX
  5
9F
  8
DEFAULT
 10
192.097907941666
 20
107.7269746512853
 30
0.0
  0
VERTEX
  5
A0
  8
DEFAULT
 10
192.0249663403895
 20
107.7061662525617
 30
0.0
  0
VERTEX
  5
A1
  8
DEFAULT
 10
191.9501904657748
 20
107.6871921271764
 30
0.0
  0
VERTEX
  5
A2
  8
DEFAULT
 10
191.8736382535365
 20
107.6699943394147
 30
0.0
  0
VERTEX
  5
A3
  8
DEFAULT
 10
191.7953719309237
 20
107.6545106620275
 30
0.0
  0
VERTEX
  5
A4
  8
DEFAULT
 10
191.7154580167201
 20
107.6406745762312
 30
0.0
  0
VERTEX
  5
A5
  8
DEFAULT
 10
191.6339673212436
 20
107.6284152717077
 30
0.0
  0
VERTEX
  5
A6
  8
DEFAULT
 10
191.5509749463466
 20
107.6176576466047
 30
0.0
  0
VERTEX
  5
A7
  8
DEFAULT
 10
191.4665602854159
 20
107.6083223075353
 30
0.0
  0
VERTEX
  5
A8
  8
DEFAULT
 10
191.2938031366733
 20
107.593579456278
 30
0.0
  0
VERTEX
  5
A9
  8
DEFAULT
 10
191.1164168527987
 20
107.5834657401525
 30
0.0
  0
VERTEX
  5
AA
  8
DEFAULT
 10
190.7509841135409
 20
107.5738984794103
 30
0.0
  0
VERTEX
  5
AB
  8
DEFAULT
 10
190.3774031809237
 20
107.5724794120275
 30
0.0
  0
VERTEX
  5
AC
  8
DEFAULT
 10
70.37740318092385
 20
107.5724794120276
 30
0.0
  0
VERTEX
  5
AD
  8
DEFAULT
 10
70.00382224830668
 20
107.5738984794104
 30
0.0
  0
VERTEX
  5
AE
  8
DEFAULT
 10
69.63838950904886
 20
107.5834657401526
 30
0.0
  0
VERTEX
  5
AF
  8
DEFAULT
 10
69.46100322517435
 20
107.5935794562781
 30
0.0
  0
VERTEX
  5
B0
  8
DEFAULT
 10
69.28824607643168
 20
107.6083223075354
 30
0.0
  0
VERTEX
  5
B1
  8
DEFAULT
 10
69.20383141550104
 20
107.6176576466048
 30
0.0
  0
VERTEX
  5
B2
  8
DEFAULT
 10
69.12083904060404
 20
107.6284152717078
 30
0.0
  0
VERTEX
  5
B3
  8
DEFAULT
 10
69.03934834512752
 20
107.6406745762312
 30
0.0
  0
VERTEX
  5
B4
  8
DEFAULT
 10
68.95943443092388
 20
107.6545106620276
 30
0.0
  0
VERTEX
  5
B5
  8
DEFAULT
 10
68.8811681083111
 20
107.6699943394148
 30
0.0
  0
VERTEX
  5
B6
  8
DEFAULT
 10
68.80461589607279
 20
107.6871921271765
 30
0.0
  0
VERTEX
  5
B7
  8
DEFAULT
 10
68.72984002145807
 20
107.7061662525618
 30
0.0
  0
VERTEX
  5
B8
  8
DEFAULT
 10
68.65689842018168
 20
107.7269746512853
 30
0.0
  0
VERTEX
  5
B9
  8
DEFAULT
 10
68.5858447364239
 20
107.7496709675275
 30
0.0
  0
VERTEX
  5
BA
  8
DEFAULT
 10
68.5167283228306
 20
107.7743045539343
 30
0.0
  0
VERTEX
  5
BB
  8
DEFAULT
 10
68.48291084158103
 20
107.7873620726847
 30
0.0
  0
VERTEX
  5
BC
  8
DEFAULT
 10
68.44959424051325
 20
107.8009204716169
 30
0.0
  0
VERTEX
  5
BD
  8
DEFAULT
 10
68.41678348171394
 20
107.8149847128176
 30
0.0
  0
VERTEX
  5
BE
  8
DEFAULT
 10
68.38448325904886
 20
107.8295594901525
 30
0.0
  0
VERTEX
  5
BF
  8
DEFAULT
 10
68.35269799816291
 20
107.8446492292666
 30
0.0
  0
VERTEX
  5
C0
  8
DEFAULT
 10
68.32143185648005
 20
107.8602580875837
 30
0.0
  0
VERTEX
  5
C1
  8
DEFAULT
 10
68.29068872320332
 20
107.876389954307
 30
0.0
  0
VERTEX
  5
C2
  8
DEFAULT
 10
68.26047221931496
 20
107.8930484504186
 30
0.0
  0
VERTEX
  5
C3
  8
DEFAULT
 10
68.23078569757618
 20
107.9102369286798
 30
0.0
  0
VERTEX
  5
C4
  8
DEFAULT
 10
68.20163224252738
 20
107.927958473631
 30
0.0
  0
VERTEX
  5
C5
  8
DEFAULT
 10
68.17301467048802
 20
107.9462159015917
 30
0.0
  0
VERTEX
  5
C6
  8
DEFAULT
 10
68.14493552955665
 20
107.9650117606603
 30
0.0
  0
VERTEX
  5
C7
  8
DEFAULT
 10
68.11739709961094
 20
107.9843483307146
 30
0.0
  0
VERTEX
  5
C8
  8
DEFAULT
 10
68.09040139230764
 20
108.0042276234113
 30
0.0
  0
VERTEX
  5
C9
  8
DEFAULT
 10
68.06395015108264
 20
108.0246513821863
 30
0.0
  0
VERTEX
  5
CA
  8
DEFAULT
 10
68.03804485115086
 20
108.0456210822545
 30
0.0
  0
VERTEX
  5
CB
  8
DEFAULT
 10
68.01268669950639
 20
108.0671379306101
 30
0.0
  0
VERTEX
  5
CC
  8
DEFAULT
 10
67.98787663492239
 20
108.089202866026
 30
0.0
  0
VERTEX
  5
CD
  8
DEFAULT
 10
67.96361532795106
 20
108.1118165590547
 30
0.0
  0
VERTEX
  5
CE
  8
DEFAULT
 10
67.9399031809238
 20
108.1349794120275
 30
0.0
  0
VERTEX
  5
CF
  8
DEFAULT
 10
67.91674032795106
 20
108.1586915590547
 30
0.0
  0
VERTEX
  5
D0
  8
DEFAULT
 10
67.89412663492237
 20
108.182952866026
 30
0.0
  0
VERTEX
  5
D1
  8
DEFAULT
 10
67.87206169950636
 20
108.20776293061
 30
0.0
  0
VERTEX
  5
D2
  8
DEFAULT
 10
67.85054485115083
 20
108.2331210822545
 30
0.0
  0
VERTEX
  5
D3
  8
DEFAULT
 10
67.8295751510826
 20
108.2590263821863
 30
0.0
  0
VERTEX
  5
D4
  8
DEFAULT
 10
67.8091513923076
 20
108.2854776234113
 30
0.0
  0
VERTEX
  5
D5
  8
DEFAULT
 10
67.78927209961088
 20
108.3124733307146
 30
0.0
  0
VERTEX
  5
D6
  8
DEFAULT
 10
67.76993552955659
 20
108.3400117606603
 30
0.0
  0
VERTEX
  5
D7
  8
DEFAULT
 10
67.75113967048793
 20
108.3680909015916
 30
0.0
  0
VERTEX
  5
D8
  8
DEFAULT
 10
67.7328822425273
 20
108.396708473631
 30
0.0
  0
VERTEX
  5
D9
  8
DEFAULT
 10
67.7151606975761
 20
108.4258619286798
 30
0.0
  0
VERTEX
  5
DA
  8
DEFAULT
 10
67.69797221931486
 20
108.4555484504185
 30
0.0
  0
VERTEX
  5
DB
  8
DEFAULT
 10
67.68131372320323
 20
108.4857649543069
 30
0.0
  0
VERTEX
  5
DC
  8
DEFAULT
 10
67.66518185647993
 20
108.5165080875836
 30
0.0
  0
VERTEX
  5
DD
  8
DEFAULT
 10
67.6495729981628
 20
108.5477742292665
 30
0.0
  0
VERTEX
  5
DE
  8
DEFAULT
 10
67.63448325904875
 20
108.5795594901524
 30
0.0
  0
VERTEX
  5
DF
  8
DEFAULT
 10
67.61990848171382
 20
108.6118597128175
 30
0.0
  0
VERTEX
  5
E0
  8
DEFAULT
 10
67.60584424051314
 20
108.6446704716168
 30
0.0
  0
VERTEX
  5
E1
  8
DEFAULT
 10
67.5922858415809
 20
108.6779870726846
 30
0.0
  0
VERTEX
  5
E2
  8
DEFAULT
 10
67.57922832283047
 20
108.7118045539342
 30
0.0
  0
VERTEX
  5
E3
  8
DEFAULT
 10
67.55459473642375
 20
108.7809209675275
 30
0.0
  0
VERTEX
  5
E4
  8
DEFAULT
 10
67.53189842018153
 20
108.8519746512852
 30
0.0
  0
VERTEX
  5
E5
  8
DEFAULT
 10
67.51109002145793
 20
108.9249162525616
 30
0.0
  0
VERTEX
  5
E6
  8
DEFAULT
 10
67.49211589607265
 20
108.9996921271764
 30
0.0
  0
VERTEX
  5
E7
  8
DEFAULT
 10
67.47491810831096
 20
109.0762443394147
 30
0.0
  0
VERTEX
  5
E8
  8
DEFAULT
 10
67.45943443092372
 20
109.1545106620274
 30
0.0
  0
VERTEX
  5
E9
  8
DEFAULT
 10
67.44559834512737
 20
109.2344245762311
 30
0.0
  0
VERTEX
  5
EA
  8
DEFAULT
 10
67.4333390406039
 20
109.3159152717076
 30
0.0
  0
VERTEX
  5
EB
  8
DEFAULT
 10
67.4225814155009
 20
109.3989076466046
 30
0.0
  0
VERTEX
  5
EC
  8
DEFAULT
 10
67.41324607643153
 20
109.4833223075353
 30
0.0
  0
VERTEX
  5
ED
  8
DEFAULT
 10
67.3985032251742
 20
109.656079456278
 30
0.0
  0
VERTEX
  5
EE
  8
DEFAULT
 10
67.38838950904872
 20
109.8334657401525
 30
0.0
  0
VERTEX
  5
EF
  8
DEFAULT
 10
67.37882224830653
 20
110.1988984794103
 30
0.0
  0
VERTEX
  5
F0
  8
DEFAULT
 10
67.37740318092372
 20
110.5724794120275
 30
0.0
  0
VERTEX
  5
F1
  8
DEFAULT
 10
67.3774031809238
 20
194.5724794120275
 30
0.0
  0
VERTEX
  5
F2
  8
DEFAULT
 10
67.37882224830662
 20
194.9460603446446
 30
0.0
  0
VERTEX
  5
F3
  8
DEFAULT
 10
67.3883895090488
 20
195.3114930839024
 30
0.0
  0
VERTEX
  5
F4
  8
DEFAULT
 10
67.3985032251743
 20
195.4888793677769
 30
0.0
  0
VERTEX
  5
F5
  8
DEFAULT
 10
67.41324607643165
 20
195.6616365165196
 30
0.0
  0
VERTEX
  5
F6
  8
DEFAULT
 10
67.42258141550101
 20
195.7460511774502
 30
0.0
  0
VERTEX
  5
F7
  8
DEFAULT
 10
67.43333904060401
 20
195.8290435523472
 30
0.0
  0
VERTEX
  5
F8
  8
DEFAULT
 10
67.44559834512748
 20
195.9105342478238
 30
0.0
  0
VERTEX
  5
F9
  8
DEFAULT
 10
67.45943443092382
 20
195.9904481620274
 30
0.0
  0
VERTEX
  5
FA
  8
DEFAULT
 10
67.47491810831104
 20
196.0687144846402
 30
0.0
  0
VERTEX
  5
FB
  8
DEFAULT
 10
67.49211589607273
 20
196.1452666968785
 30
0.0
  0
VERTEX
  5
FC
  8
DEFAULT
 10
67.51109002145802
 20
196.2200425714932
 30
0.0
  0
VERTEX
  5
FD
  8
DEFAULT
 10
67.5318984201816
 20
196.2929841727696
 30
0.0
  0
VERTEX
  5
FE
  8
DEFAULT
 10
67.55459473642381
 20
196.3640378565274
 30
0.0
  0
VERTEX
  5
FF
  8
DEFAULT
 10
67.57922832283053
 20
196.4331542701207
 30
0.0
  0
VERTEX
  5
100
  8
DEFAULT
 10
67.59228584158096
 20
196.4669717513702
 30
0.0
  0
VERTEX
  5
101
  8
DEFAULT
 10
67.60584424051318
 20
196.500288352438
 30
0.0
  0
VERTEX
  5
102
  8
DEFAULT
 10
67.61990848171385
 20
196.5330991112373
 30
0.0
  0
VERTEX
  5
103
  8
DEFAULT
 10
67.63448325904878
 20
196.5653993339024
 30
0.0
  0
VERTEX
  5
104
  8
DEFAULT
 10
67.64957299816282
 20
196.5971845947884
 30
0.0
  0
VERTEX
  5
105
  8
DEFAULT
 10
67.66518185647996
 20
196.6284507364712
 30
0.0
  0
VERTEX
  5
106
  8
DEFAULT
 10
67.68131372320325
 20
196.6591938697479
 30
0.0
  0
VERTEX
  5
107
  8
DEFAULT
 10
67.69797221931486
 20
196.6894103736363
 30
0.0
  0
VERTEX
  5
108
  8
DEFAULT
 10
67.7151606975761
 20
196.7190968953751
 30
0.0
  0
VERTEX
  5
109
  8
DEFAULT
 10
67.7328822425273
 20
196.7482503504239
 30
0.0
  0
VERTEX
  5
10A
  8
DEFAULT
 10
67.75113967048793
 20
196.7768679224632
 30
0.0
  0
VERTEX
  5
10B
  8
DEFAULT
 10
67.76993552955656
 20
196.8049470633946
 30
0.0
  0
VERTEX
  5
10C
  8
DEFAULT
 10
67.78927209961086
 20
196.8324854933403
 30
0.0
  0
VERTEX
  5
10D
  8
DEFAULT
 10
67.80915139230756
 20
196.8594812006436
 30
0.0
  0
VERTEX
  5
10E
  8
DEFAULT
 10
67.82957515108255
 20
196.8859324418686
 30
0.0
  0
VERTEX
  5
10F
  8
DEFAULT
 10
67.85054485115079
 20
196.9118377418004
 30
0.0
  0
VERTEX
  5
110
  8
DEFAULT
 10
67.87206169950633
 20
196.9371958934448
 30
0.0
  0
VERTEX
  5
111
  8
DEFAULT
 10
67.89412663492232
 20
196.9620059580288
 30
0.0
  0
VERTEX
  5
112
  8
DEFAULT
 10
67.91674032795099
 20
196.9862672650002
 30
0.0
  0
VERTEX
  5
113
  8
DEFAULT
 10
67.93990318092374
 20
197.0099794120274
 30
0.0
  0
VERTEX
  5
114
  8
DEFAULT
 10
67.96361532795099
 20
197.0331422650002
 30
0.0
  0
VERTEX
  5
115
  8
DEFAULT
 10
67.9878766349223
 20
197.0557559580288
 30
0.0
  0
VERTEX
  5
116
  8
DEFAULT
 10
68.0126866995063
 20
197.0778208934448
 30
0.0
  0
VERTEX
  5
117
  8
DEFAULT
 10
68.03804485115077
 20
197.0993377418004
 30
0.0
  0
VERTEX
  5
118
  8
DEFAULT
 10
68.06395015108255
 20
197.1203074418686
 30
0.0
  0
VERTEX
  5
119
  8
DEFAULT
 10
68.09040139230754
 20
197.1407312006436
 30
0.0
  0
VERTEX
  5
11A
  8
DEFAULT
 10
68.11739709961083
 20
197.1606104933404
 30
0.0
  0
VERTEX
  5
11B
  8
DEFAULT
 10
68.14493552955653
 20
197.1799470633946
 30
0.0
  0
VERTEX
  5
11C
  8
DEFAULT
 10
68.1730146704879
 20
197.1987429224633
 30
0.0
  0
VERTEX
  5
11D
  8
DEFAULT
 10
68.20163224252727
 20
197.2170003504239
 30
0.0
  0
VERTEX
  5
11E
  8
DEFAULT
 10
68.23078569757604
 20
197.2347218953751
 30
0.0
  0
VERTEX
  5
11F
  8
DEFAULT
 10
68.2604722193148
 20
197.2519103736363
 30
0.0
  0
VERTEX
  5
120
  8
DEFAULT
 10
68.29068872320317
 20
197.268568869748
 30
0.0
  0
VERTEX
  5
121
  8
DEFAULT
 10
68.32143185647988
 20
197.2847007364713
 30
0.0
  0
VERTEX
  5
122
  8
DEFAULT
 10
68.35269799816274
 20
197.3003095947884
 30
0.0
  0
VERTEX
  5
123
  8
DEFAULT
 10
68.3844832590487
 20
197.3153993339025
 30
0.0
  0
VERTEX
  5
124
  8
DEFAULT
 10
68.41678348171376
 20
197.3299741112374
 30
0.0
  0
VERTEX
  5
125
  8
DEFAULT
 10
68.44959424051308
 20
197.3440383524381
 30
0.0
  0
VERTEX
  5
126
  8
DEFAULT
 10
68.48291084158086
 20
197.3575967513703
 30
0.0
  0
VERTEX
  5
127
  8
DEFAULT
 10
68.51672832283043
 20
197.3706542701207
 30
0.0
  0
VERTEX
  5
128
  8
DEFAULT
 10
68.58584473642372
 20
197.3952878565274
 30
0.0
  0
VERTEX
  5
129
  8
DEFAULT
 10
68.6568984201815
 20
197.4179841727697
 30
0.0
  0
VERTEX
  5
12A
  8
DEFAULT
 10
68.7298400214579
 20
197.4387925714933
 30
0.0
  0
VERTEX
  5
12B
  8
DEFAULT
 10
68.80461589607262
 20
197.4577666968786
 30
0.0
  0
VERTEX
  5
12C
  8
DEFAULT
 10
68.88116810831093
 20
197.4749644846403
 30
0.0
  0
VERTEX
  5
12D
  8
DEFAULT
 10
68.9594344309237
 20
197.4904481620275
 30
0.0
  0
VERTEX
  5
12E
  8
DEFAULT
 10
69.03934834512734
 20
197.5042842478239
 30
0.0
  0
VERTEX
  5
12F
  8
DEFAULT
 10
69.12083904060387
 20
197.5165435523473
 30
0.0
  0
VERTEX
  5
130
  8
DEFAULT
 10
69.20383141550087
 20
197.5273011774503
 30
0.0
  0
VERTEX
  5
131
  8
DEFAULT
 10
69.2882460764315
 20
197.5366365165197
 30
0.0
  0
VERTEX
  5
132
  8
DEFAULT
 10
69.46100322517418
 20
197.551379367777
 30
0.0
  0
VERTEX
  5
133
  8
DEFAULT
 10
69.6383895090487
 20
197.5614930839025
 30
0.0
  0
VERTEX
  5
134
  8
DEFAULT
 10
70.0038222483065
 20
197.5710603446447
 30
0.0
  0
VERTEX
  5
135
  8
DEFAULT
 10
70.37740318092372
 20
197.5724794120275
 30
0.0
  0
VERTEX
  5
136
  8
DEFAULT
 10
190.3774031809239
 20
197.5724794120275
 30
0.0
  0
VERTEX
  5
137
  8
DEFAULT
 10
190.7509841135411
 20
197.5710603446447
 30
0.0
  0
VERTEX
  5
138
  8
DEFAULT
 10
191.1164168527989
 20
197.5614930839025
 30
0.0
  0
VERTEX
  5
139
  8
DEFAULT
 10
191.2938031366733
 20
197.551379367777
 30
0.0
  0
VERTEX
  5
13A
  8
DEFAULT
 10
191.466560285416
 20
197.5366365165197
 30
0.0
  0
VERTEX
  5
13B
  8
DEFAULT
 10
191.5509749463466
 20
197.5273011774503
 30
0.0
  0
VERTEX
  5
13C
  8
DEFAULT
 10
191.6339673212436
 20
197.5165435523473
 30
0.0
  0
VERTEX
  5
13D
  8
DEFAULT
 10
191.7154580167202
 20
197.5042842478239
 30
0.0
  0
VERTEX
  5
13E
  8
DEFAULT
 10
191.7953719309238
 20
197.4904481620275
 30
0.0
  0
VERTEX
  5
13F
  8
DEFAULT
 10
191.8736382535366
 20
197.4749644846403
 30
0.0
  0
VERTEX
  5
140
  8
DEFAULT
 10
191.9501904657749
 20
197.4577666968786
 30
0.0
  0
VERTEX
  5
141
  8
DEFAULT
 10
192.0249663403896
 20
197.4387925714933
 30
0.0
  0
VERTEX
  5
142
  8
DEFAULT
 10
192.097907941666
 20
197.4179841727697
 30
0.0
  0
VERTEX
  5
143
  8
DEFAULT
 10
192.1689616254238
 20
197.3952878565274
 30
0.0
  0
VERTEX
  5
144
  8
DEFAULT
 10
192.2380780390171
 20
197.3706542701207
 30
0.0
  0
VERTEX
  5
145
  8
DEFAULT
 10
192.2718955202666
 20
197.3575967513703
 30
0.0
  0
VERTEX
  5
146
  8
DEFAULT
 10
192.3052121213344
 20
197.3440383524381
 30
0.0
  0
VERTEX
  5
147
  8
DEFAULT
 10
192.3380228801337
 20
197.3299741112374
 30
0.0
  0
VERTEX
  5
148
  8
DEFAULT
 10
192.3703231027988
 20
197.3153993339025
 30
0.0
  0
VERTEX
  5
149
  8
DEFAULT
 10
192.4021083636848
 20
197.3003095947884
 30
0.0
  0
VERTEX
  5
14A
  8
DEFAULT
 10
192.4333745053676
 20
197.2847007364713
 30
0.0
  0
VERTEX
  5
14B
  8
DEFAULT
 10
192.4641176386443
 20
197.268568869748
 30
0.0
  0
VERTEX
  5
14C
  8
DEFAULT
 10
192.4943341425327
 20
197.2519103736363
 30
0.0
  0
VERTEX
  5
14D
  8
DEFAULT
 10
192.5240206642715
 20
197.2347218953751
 30
0.0
  0
VERTEX
  5
14E
  8
DEFAULT
 10
192.5531741193203
 20
197.2170003504239
 30
0.0
  0
VERTEX
  5
14F
  8
DEFAULT
 10
192.5817916913596
 20
197.1987429224633
 30
0.0
  0
VERTEX
  5
150
  8
DEFAULT
 10
192.609870832291
 20
197.1799470633946
 30
0.0
  0
VERTEX
  5
151
  8
DEFAULT
 10
192.6374092622367
 20
197.1606104933404
 30
0.0
  0
VERTEX
  5
152
  8
DEFAULT
 10
192.66440496954
 20
197.1407312006436
 30
0.0
  0
VERTEX
  5
153
  8
DEFAULT
 10
192.6908562107649
 20
197.1203074418686
 30
0.0
  0
VERTEX
  5
154
  8
DEFAULT
 10
192.7167615106967
 20
197.0993377418004
 30
0.0
  0
VERTEX
  5
155
  8
DEFAULT
 10
192.7421196623412
 20
197.0778208934448
 30
0.0
  0
VERTEX
  5
156
  8
DEFAULT
 10
192.7669297269252
 20
197.0557559580288
 30
0.0
  0
VERTEX
  5
157
  8
DEFAULT
 10
192.7911910338965
 20
197.0331422650002
 30
0.0
  0
VERTEX
  5
158
  8
DEFAULT
 10
192.8149031809238
 20
197.0099794120274
 30
0.0
  0
VERTEX
  5
159
  8
DEFAULT
 10
192.8380660338965
 20
196.9862672650002
 30
0.0
  0
VERTEX
  5
15A
  8
DEFAULT
 10
192.8606797269252
 20
196.9620059580289
 30
0.0
  0
VERTEX
  5
15B
  8
DEFAULT
 10
192.8827446623412
 20
196.9371958934448
 30
0.0
  0
VERTEX
  5
15C
  8
DEFAULT
 10
192.9042615106967
 20
196.9118377418004
 30
0.0
  0
VERTEX
  5
15D
  8
DEFAULT
 10
192.925231210765
 20
196.8859324418686
 30
0.0
  0
VERTEX
  5
15E
  8
DEFAULT
 10
192.94565496954
 20
196.8594812006436
 30
0.0
  0
VERTEX
  5
15F
  8
DEFAULT
 10
192.9655342622367
 20
196.8324854933403
 30
0.0
  0
VERTEX
  5
160
  8
DEFAULT
 10
192.984870832291
 20
196.8049470633946
 30
0.0
  0
VERTEX
  5
161
  8
DEFAULT
 10
193.0036666913596
 20
196.7768679224632
 30
0.0
  0
VERTEX
  5
162
  8
DEFAULT
 10
193.0219241193202
 20
196.7482503504239
 30
0.0
  0
VERTEX
  5
163
  8
DEFAULT
 10
193.0396456642714
 20
196.7190968953751
 30
0.0
  0
VERTEX
  5
164
  8
DEFAULT
 10
193.0568341425326
 20
196.6894103736363
 30
0.0
  0
VERTEX
  5
165
  8
DEFAULT
 10
193.0734926386443
 20
196.6591938697479
 30
0.0
  0
VERTEX
  5
166
  8
DEFAULT
 10
193.0896245053676
 20
196.6284507364712
 30
0.0
  0
VERTEX
  5
167
  8
DEFAULT
 10
193.1052333636847
 20
196.5971845947884
 30
0.0
  0
VERTEX
  5
168
  8
DEFAULT
 10
193.1203231027987
 20
196.5653993339024
 30
0.0
  0
VERTEX
  5
169
  8
DEFAULT
 10
193.1348978801337
 20
196.5330991112374
 30
0.0
  0
VERTEX
  5
16A
  8
DEFAULT
 10
193.1489621213344
 20
196.5002883524381
 30
0.0
  0
VERTEX
  5
16B
  8
DEFAULT
 10
193.1625205202666
 20
196.4669717513703
 30
0.0
  0
VERTEX
  5
16C
  8
DEFAULT
 10
193.175578039017
 20
196.4331542701207
 30
0.0
  0
VERTEX
  5
16D
  8
DEFAULT
 10
193.2002116254237
 20
196.3640378565274
 30
0.0
  0
VERTEX
  5
16E
  8
DEFAULT
 10
193.222907941666
 20
196.2929841727696
 30
0.0
  0
VERTEX
  5
16F
  8
DEFAULT
 10
193.2437163403896
 20
196.2200425714933
 30
0.0
  0
VERTEX
  5
170
  8
DEFAULT
 10
193.2626904657749
 20
196.1452666968785
 30
0.0
  0
VERTEX
  5
171
  8
DEFAULT
 10
193.2798882535366
 20
196.0687144846402
 30
0.0
  0
VERTEX
  5
172
  8
DEFAULT
 10
193.2953719309238
 20
195.9904481620275
 30
0.0
  0
VERTEX
  5
173
  8
DEFAULT
 10
193.3092080167202
 20
195.9105342478238
 30
0.0
  0
VERTEX
  5
174
  8
DEFAULT
 10
193.3214673212436
 20
195.8290435523473
 30
0.0
  0
VERTEX
  5
175
  8
DEFAULT
 10
193.3322249463466
 20
195.7460511774503
 30
0.0
  0
VERTEX
  5
176
  8
DEFAULT
 10
193.341560285416
 20
195.6616365165196
 30
0.0
  0
VERTEX
  5
177
  8
DEFAULT
 10
193.3563031366733
 20
195.488879367777
 30
0.0
  0
VERTEX
  5
178
  8
DEFAULT
 10
193.3664168527988
 20
195.3114930839025
 30
0.0
  0
VERTEX
  5
179
  8
DEFAULT
 10
193.375984113541
 20
194.9460603446447
 30
0.0
  0
SEQEND
  5
17A
  8
DEFAULT
  0
CIRCLE
  5
17B
  8
DEFAULT
 10
-188.3774031809238
 20
112.5724794120275
 30
0.0
 40
1.499999999999943
210
0.0
220
0.0
230
-1.0
  0
CIRCLE
  5
17C
  8
DEFAULT
 10
-188.3774031809238
 20
192.5724794120275
 30
0.0
 40
1.500000000000028
210
0.0
220
0.0
230
-1.0
  0
CIRCLE
  5
17D
  8
DEFAULT
 10
72.37740318092378
 20
112.5724794120275
 30
0.0
 40
1.5
  0
CIRCLE
  5
17E
  8
DEFAULT
 10
72.3774031809238
 20
192.5724794120275
 30
0.0
 40
1.5
  0
POLYLINE
  5
17F
  8
DEFAULT
 66
     1
 10
0.0
 20
0.0
 30
0.0
 70
     1
  0
VERTEX
  5
180
  8
DEFAULT
 10
62.99999999999999
 20
194.5724794120275
 30
0.0
  0
VERTEX
  5
181
  8
DEFAULT
 10
63.00000000000007
 20
110.5724794120276
 30
0.0
  0
VERTEX
  5
182
  8
DEFAULT
 10
62.99858093261727
 20
110.1988984794103
 30
0.0
  0
VERTEX
  5
183
  8
DEFAULT
 10
62.98901367187509
 20
109.8334657401525
 30
0.0
  0
VERTEX
  5
184
  8
DEFAULT
 10
62.97889995574961
 20
109.656079456278
 30
0.0
  0
VERTEX
  5
185
  8
DEFAULT
 10
62.96415710449229
 20
109.4833223075353
 30
0.0
  0
VERTEX
  5
186
  8
DEFAULT
 10
62.95482176542292
 20
109.3989076466046
 30
0.0
  0
VERTEX
  5
187
  8
DEFAULT
 10
62.94406414031992
 20
109.3159152717076
 30
0.0
  0
VERTEX
  5
188
  8
DEFAULT
 10
62.93180483579646
 20
109.2344245762311
 30
0.0
  0
VERTEX
  5
189
  8
DEFAULT
 10
62.91796875000009
 20
109.1545106620274
 30
0.0
  0
VERTEX
  5
18A
  8
DEFAULT
 10
62.90248507261285
 20
109.0762443394147
 30
0.0
  0
VERTEX
  5
18B
  8
DEFAULT
 10
62.88528728485116
 20
108.9996921271764
 30
0.0
  0
VERTEX
  5
18C
  8
DEFAULT
 10
62.86631315946588
 20
108.9249162525616
 30
0.0
  0
VERTEX
  5
18D
  8
DEFAULT
 10
62.84550476074227
 20
108.8519746512852
 30
0.0
  0
VERTEX
  5
18E
  8
DEFAULT
 10
62.82280844450005
 20
108.7809209675275
 30
0.0
  0
VERTEX
  5
18F
  8
DEFAULT
 10
62.79817485809334
 20
108.7118045539342
 30
0.0
  0
VERTEX
  5
190
  8
DEFAULT
 10
62.78511733934291
 20
108.6779870726846
 30
0.0
  0
VERTEX
  5
191
  8
DEFAULT
 10
62.77155894041069
 20
108.6446704716168
 30
0.0
  0
VERTEX
  5
192
  8
DEFAULT
 10
62.75749469921
 20
108.6118597128175
 30
0.0
  0
VERTEX
  5
193
  8
DEFAULT
 10
62.74291992187507
 20
108.5795594901524
 30
0.0
  0
VERTEX
  5
194
  8
DEFAULT
 10
62.72783018276102
 20
108.5477742292665
 30
0.0
  0
VERTEX
  5
195
  8
DEFAULT
 10
62.71222132444389
 20
108.5165080875836
 30
0.0
  0
VERTEX
  5
196
  8
DEFAULT
 10
62.69608945772059
 20
108.4857649543069
 30
0.0
  0
VERTEX
  5
197
  8
DEFAULT
 10
62.67943096160896
 20
108.4555484504185
 30
0.0
  0
VERTEX
  5
198
  8
DEFAULT
 10
62.66224248334773
 20
108.4258619286798
 30
0.0
  0
VERTEX
  5
199
  8
DEFAULT
 10
62.64452093839652
 20
108.396708473631
 30
0.0
  0
VERTEX
  5
19A
  8
DEFAULT
 10
62.62626351043588
 20
108.3680909015916
 30
0.0
  0
VERTEX
  5
19B
  8
DEFAULT
 10
62.60746765136724
 20
108.3400117606603
 30
0.0
  0
VERTEX
  5
19C
  8
DEFAULT
 10
62.58813108131295
 20
108.3124733307146
 30
0.0
  0
VERTEX
  5
19D
  8
DEFAULT
 10
62.56825178861623
 20
108.2854776234113
 30
0.0
  0
VERTEX
  5
19E
  8
DEFAULT
 10
62.54782802984123
 20
108.2590263821863
 30
0.0
  0
VERTEX
  5
19F
  8
DEFAULT
 10
62.52685832977299
 20
108.2331210822545
 30
0.0
  0
VERTEX
  5
1A0
  8
DEFAULT
 10
62.50534148141746
 20
108.20776293061
 30
0.0
  0
VERTEX
  5
1A1
  8
DEFAULT
 10
62.48327654600148
 20
108.182952866026
 30
0.0
  0
VERTEX
  5
1A2
  8
DEFAULT
 10
62.46066285297279
 20
108.1586915590547
 30
0.0
  0
VERTEX
  5
1A3
  8
DEFAULT
 10
62.43750000000003
 20
108.1349794120274
 30
0.0
  0
VERTEX
  5
1A4
  8
DEFAULT
 10
62.41378785297277
 20
108.1118165590547
 30
0.0
  0
VERTEX
  5
1A5
  8
DEFAULT
 10
62.38952654600145
 20
108.089202866026
 30
0.0
  0
VERTEX
  5
1A6
  8
DEFAULT
 10
62.36471648141743
 20
108.06713793061
 30
0.0
  0
VERTEX
  5
1A7
  8
DEFAULT
 10
62.33935832977296
 20
108.0456210822545
 30
0.0
  0
VERTEX
  5
1A8
  8
DEFAULT
 10
62.3134530298412
 20
108.0246513821863
 30
0.0
  0
VERTEX
  5
1A9
  8
DEFAULT
 10
62.28700178861619
 20
108.0042276234113
 30
0.0
  0
VERTEX
  5
1AA
  8
DEFAULT
 10
62.26000608131289
 20
107.9843483307146
 30
0.0
  0
VERTEX
  5
1AB
  8
DEFAULT
 10
62.23246765136719
 20
107.9650117606603
 30
0.0
  0
VERTEX
  5
1AC
  8
DEFAULT
 10
62.20438851043582
 20
107.9462159015916
 30
0.0
  0
VERTEX
  5
1AD
  8
DEFAULT
 10
62.17577093839645
 20
107.927958473631
 30
0.0
  0
VERTEX
  5
1AE
  8
DEFAULT
 10
62.14661748334765
 20
107.9102369286798
 30
0.0
  0
VERTEX
  5
1AF
  8
DEFAULT
 10
62.11693096160888
 20
107.8930484504186
 30
0.0
  0
VERTEX
  5
1B0
  8
DEFAULT
 10
62.0867144577205
 20
107.8763899543069
 30
0.0
  0
VERTEX
  5
1B1
  8
DEFAULT
 10
62.0559713244438
 20
107.8602580875836
 30
0.0
  0
VERTEX
  5
1B2
  8
DEFAULT
 10
62.02470518276094
 20
107.8446492292665
 30
0.0
  0
VERTEX
  5
1B3
  8
DEFAULT
 10
61.99291992187499
 20
107.8295594901525
 30
0.0
  0
VERTEX
  5
1B4
  8
DEFAULT
 10
61.96061969920991
 20
107.8149847128175
 30
0.0
  0
VERTEX
  5
1B5
  8
DEFAULT
 10
61.9278089404106
 20
107.8009204716169
 30
0.0
  0
VERTEX
  5
1B6
  8
DEFAULT
 10
61.89449233934282
 20
107.7873620726846
 30
0.0
  0
VERTEX
  5
1B7
  8
DEFAULT
 10
61.86067485809324
 20
107.7743045539342
 30
0.0
  0
VERTEX
  5
1B8
  8
DEFAULT
 10
61.79155844449994
 20
107.7496709675275
 30
0.0
  0
VERTEX
  5
1B9
  8
DEFAULT
 10
61.72050476074216
 20
107.7269746512853
 30
0.0
  0
VERTEX
  5
1BA
  8
DEFAULT
 10
61.64756315946576
 20
107.7061662525617
 30
0.0
  0
VERTEX
  5
1BB
  8
DEFAULT
 10
61.57278728485105
 20
107.6871921271764
 30
0.0
  0
VERTEX
  5
1BC
  8
DEFAULT
 10
61.49623507261273
 20
107.6699943394147
 30
0.0
  0
VERTEX
  5
1BD
  8
DEFAULT
 10
61.41796874999996
 20
107.6545106620275
 30
0.0
  0
VERTEX
  5
1BE
  8
DEFAULT
 10
61.33805483579631
 20
107.6406745762312
 30
0.0
  0
VERTEX
  5
1BF
  8
DEFAULT
 10
61.25656414031978
 20
107.6284152717077
 30
0.0
  0
VERTEX
  5
1C0
  8
DEFAULT
 10
61.17357176542278
 20
107.6176576466047
 30
0.0
  0
VERTEX
  5
1C1
  8
DEFAULT
 10
61.08915710449214
 20
107.6083223075353
 30
0.0
  0
VERTEX
  5
1C2
  8
DEFAULT
 10
60.91639995574946
 20
107.593579456278
 30
0.0
  0
VERTEX
  5
1C3
  8
DEFAULT
 10
60.73901367187494
 20
107.5834657401525
 30
0.0
  0
VERTEX
  5
1C4
  8
DEFAULT
 10
60.37358093261714
 20
107.5738984794103
 30
0.0
  0
VERTEX
  5
1C5
  8
DEFAULT
 10
59.99999999999996
 20
107.5724794120275
 30
0.0
  0
VERTEX
  5
1C6
  8
DEFAULT
 10
-59.99999999999996
 20
107.5724794120276
 30
0.0
  0
VERTEX
  5
1C7
  8
DEFAULT
 10
-60.37358093261712
 20
107.5738984794104
 30
0.0
  0
VERTEX
  5
1C8
  8
DEFAULT
 10
-60.73901367187493
 20
107.5834657401526
 30
0.0
  0
VERTEX
  5
1C9
  8
DEFAULT
 10
-60.91639995574944
 20
107.5935794562781
 30
0.0
  0
VERTEX
  5
1CA
  8
DEFAULT
 10
-61.08915710449211
 20
107.6083223075354
 30
0.0
  0
VERTEX
  5
1CB
  8
DEFAULT
 10
-61.17357176542275
 20
107.6176576466048
 30
0.0
  0
VERTEX
  5
1CC
  8
DEFAULT
 10
-61.25656414031975
 20
107.6284152717078
 30
0.0
  0
VERTEX
  5
1CD
  8
DEFAULT
 10
-61.33805483579629
 20
107.6406745762312
 30
0.0
  0
VERTEX
  5
1CE
  8
DEFAULT
 10
-61.41796874999992
 20
107.6545106620276
 30
0.0
  0
VERTEX
  5
1CF
  8
DEFAULT
 10
-61.49623507261268
 20
107.6699943394148
 30
0.0
  0
VERTEX
  5
1D0
  8
DEFAULT
 10
-61.572787284851
 20
107.6871921271765
 30
0.0
  0
VERTEX
  5
1D1
  8
DEFAULT
 10
-61.64756315946572
 20
107.7061662525618
 30
0.0
  0
VERTEX
  5
1D2
  8
DEFAULT
 10
-61.72050476074212
 20
107.7269746512853
 30
0.0
  0
VERTEX
  5
1D3
  8
DEFAULT
 10
-61.7915584444999
 20
107.7496709675275
 30
0.0
  0
VERTEX
  5
1D4
  8
DEFAULT
 10
-61.8606748580932
 20
107.7743045539343
 30
0.0
  0
VERTEX
  5
1D5
  8
DEFAULT
 10
-61.89449233934278
 20
107.7873620726847
 30
0.0
  0
VERTEX
  5
1D6
  8
DEFAULT
 10
-61.92780894041056
 20
107.8009204716169
 30
0.0
  0
VERTEX
  5
1D7
  8
DEFAULT
 10
-61.96061969920987
 20
107.8149847128176
 30
0.0
  0
VERTEX
  5
1D8
  8
DEFAULT
 10
-61.99291992187495
 20
107.8295594901525
 30
0.0
  0
VERTEX
  5
1D9
  8
DEFAULT
 10
-62.02470518276091
 20
107.8446492292666
 30
0.0
  0
VERTEX
  5
1DA
  8
DEFAULT
 10
-62.05597132444377
 20
107.8602580875837
 30
0.0
  0
VERTEX
  5
1DB
  8
DEFAULT
 10
-62.08671445772048
 20
107.876389954307
 30
0.0
  0
VERTEX
  5
1DC
  8
DEFAULT
 10
-62.11693096160885
 20
107.8930484504186
 30
0.0
  0
VERTEX
  5
1DD
  8
DEFAULT
 10
-62.14661748334763
 20
107.9102369286798
 30
0.0
  0
VERTEX
  5
1DE
  8
DEFAULT
 10
-62.17577093839643
 20
107.927958473631
 30
0.0
  0
VERTEX
  5
1DF
  8
DEFAULT
 10
-62.20438851043579
 20
107.9462159015917
 30
0.0
  0
VERTEX
  5
1E0
  8
DEFAULT
 10
-62.23246765136716
 20
107.9650117606603
 30
0.0
  0
VERTEX
  5
1E1
  8
DEFAULT
 10
-62.26000608131287
 20
107.9843483307146
 30
0.0
  0
VERTEX
  5
1E2
  8
DEFAULT
 10
-62.28700178861616
 20
108.0042276234113
 30
0.0
  0
VERTEX
  5
1E3
  8
DEFAULT
 10
-62.31345302984117
 20
108.0246513821863
 30
0.0
  0
VERTEX
  5
1E4
  8
DEFAULT
 10
-62.33935832977294
 20
108.0456210822545
 30
0.0
  0
VERTEX
  5
1E5
  8
DEFAULT
 10
-62.3647164814174
 20
108.0671379306101
 30
0.0
  0
VERTEX
  5
1E6
  8
DEFAULT
 10
-62.38952654600142
 20
108.089202866026
 30
0.0
  0
VERTEX
  5
1E7
  8
DEFAULT
 10
-62.41378785297274
 20
108.1118165590547
 30
0.0
  0
VERTEX
  5
1E8
  8
DEFAULT
 10
-62.4375
 20
108.1349794120275
 30
0.0
  0
VERTEX
  5
1E9
  8
DEFAULT
 10
-62.46066285297276
 20
108.1586915590547
 30
0.0
  0
VERTEX
  5
1EA
  8
DEFAULT
 10
-62.48327654600145
 20
108.182952866026
 30
0.0
  0
VERTEX
  5
1EB
  8
DEFAULT
 10
-62.50534148141743
 20
108.20776293061
 30
0.0
  0
VERTEX
  5
1EC
  8
DEFAULT
 10
-62.52685832977296
 20
108.2331210822545
 30
0.0
  0
VERTEX
  5
1ED
  8
DEFAULT
 10
-62.5478280298412
 20
108.2590263821863
 30
0.0
  0
VERTEX
  5
1EE
  8
DEFAULT
 10
-62.5682517886162
 20
108.2854776234113
 30
0.0
  0
VERTEX
  5
1EF
  8
DEFAULT
 10
-62.58813108131292
 20
108.3124733307146
 30
0.0
  0
VERTEX
  5
1F0
  8
DEFAULT
 10
-62.60746765136722
 20
108.3400117606603
 30
0.0
  0
VERTEX
  5
1F1
  8
DEFAULT
 10
-62.62626351043586
 20
108.3680909015916
 30
0.0
  0
VERTEX
  5
1F2
  8
DEFAULT
 10
-62.64452093839649
 20
108.396708473631
 30
0.0
  0
VERTEX
  5
1F3
  8
DEFAULT
 10
-62.6622424833477
 20
108.4258619286798
 30
0.0
  0
VERTEX
  5
1F4
  8
DEFAULT
 10
-62.67943096160893
 20
108.4555484504185
 30
0.0
  0
VERTEX
  5
1F5
  8
DEFAULT
 10
-62.69608945772056
 20
108.4857649543069
 30
0.0
  0
VERTEX
  5
1F6
  8
DEFAULT
 10
-62.71222132444386
 20
108.5165080875836
 30
0.0
  0
VERTEX
  5
1F7
  8
DEFAULT
 10
-62.727830182761
 20
108.5477742292665
 30
0.0
  0
VERTEX
  5
1F8
  8
DEFAULT
 10
-62.74291992187505
 20
108.5795594901524
 30
0.0
  0
VERTEX
  5
1F9
  8
DEFAULT
 10
-62.75749469920999
 20
108.6118597128175
 30
0.0
  0
VERTEX
  5
1FA
  8
DEFAULT
 10
-62.77155894041067
 20
108.6446704716168
 30
0.0
  0
VERTEX
  5
1FB
  8
DEFAULT
 10
-62.7851173393429
 20
108.6779870726846
 30
0.0
  0
VERTEX
  5
1FC
  8
DEFAULT
 10
-62.79817485809333
 20
108.7118045539342
 30
0.0
  0
VERTEX
  5
1FD
  8
DEFAULT
 10
-62.82280844450004
 20
108.7809209675275
 30
0.0
  0
VERTEX
  5
1FE
  8
DEFAULT
 10
-62.84550476074226
 20
108.8519746512852
 30
0.0
  0
VERTEX
  5
1FF
  8
DEFAULT
 10
-62.86631315946586
 20
108.9249162525616
 30
0.0
  0
VERTEX
  5
200
  8
DEFAULT
 10
-62.88528728485115
 20
108.9996921271764
 30
0.0
  0
VERTEX
  5
201
  8
DEFAULT
 10
-62.90248507261285
 20
109.0762443394147
 30
0.0
  0
VERTEX
  5
202
  8
DEFAULT
 10
-62.91796875000009
 20
109.1545106620274
 30
0.0
  0
VERTEX
  5
203
  8
DEFAULT
 10
-62.93180483579646
 20
109.2344245762311
 30
0.0
  0
VERTEX
  5
204
  8
DEFAULT
 10
-62.94406414031993
 20
109.3159152717076
 30
0.0
  0
VERTEX
  5
205
  8
DEFAULT
 10
-62.95482176542292
 20
109.3989076466046
 30
0.0
  0
VERTEX
  5
206
  8
DEFAULT
 10
-62.96415710449229
 20
109.4833223075353
 30
0.0
  0
VERTEX
  5
207
  8
DEFAULT
 10
-62.97889995574963
 20
109.656079456278
 30
0.0
  0
VERTEX
  5
208
  8
DEFAULT
 10
-62.98901367187511
 20
109.8334657401525
 30
0.0
  0
VERTEX
  5
209
  8
DEFAULT
 10
-62.99858093261729
 20
110.1988984794103
 30
0.0
  0
VERTEX
  5
20A
  8
DEFAULT
 10
-63.00000000000009
 20
110.5724794120275
 30
0.0
  0
VERTEX
  5
20B
  8
DEFAULT
 10
-62.99999999999999
 20
194.5724794120275
 30
0.0
  0
VERTEX
  5
20C
  8
DEFAULT
 10
-62.99858093261717
 20
194.9460603446446
 30
0.0
  0
VERTEX
  5
20D
  8
DEFAULT
 10
-62.98901367187499
 20
195.3114930839024
 30
0.0
  0
VERTEX
  5
20E
  8
DEFAULT
 10
-62.9788999557495
 20
195.4888793677769
 30
0.0
  0
VERTEX
  5
20F
  8
DEFAULT
 10
-62.96415710449217
 20
195.6616365165196
 30
0.0
  0
VERTEX
  5
210
  8
DEFAULT
 10
-62.95482176542281
 20
195.7460511774502
 30
0.0
  0
VERTEX
  5
211
  8
DEFAULT
 10
-62.94406414031981
 20
195.8290435523472
 30
0.0
  0
VERTEX
  5
212
  8
DEFAULT
 10
-62.93180483579634
 20
195.9105342478238
 30
0.0
  0
VERTEX
  5
213
  8
DEFAULT
 10
-62.91796874999999
 20
195.9904481620274
 30
0.0
  0
VERTEX
  5
214
  8
DEFAULT
 10
-62.90248507261276
 20
196.0687144846402
 30
0.0
  0
VERTEX
  5
215
  8
DEFAULT
 10
-62.88528728485107
 20
196.1452666968785
 30
0.0
  0
VERTEX
  5
216
  8
DEFAULT
 10
-62.86631315946579
 20
196.2200425714932
 30
0.0
  0
VERTEX
  5
217
  8
DEFAULT
 10
-62.84550476074219
 20
196.2929841727696
 30
0.0
  0
VERTEX
  5
218
  8
DEFAULT
 10
-62.82280844449998
 20
196.3640378565274
 30
0.0
  0
VERTEX
  5
219
  8
DEFAULT
 10
-62.79817485809328
 20
196.4331542701207
 30
0.0
  0
VERTEX
  5
21A
  8
DEFAULT
 10
-62.78511733934285
 20
196.4669717513702
 30
0.0
  0
VERTEX
  5
21B
  8
DEFAULT
 10
-62.77155894041063
 20
196.500288352438
 30
0.0
  0
VERTEX
  5
21C
  8
DEFAULT
 10
-62.75749469920994
 20
196.5330991112373
 30
0.0
  0
VERTEX
  5
21D
  8
DEFAULT
 10
-62.74291992187501
 20
196.5653993339024
 30
0.0
  0
VERTEX
  5
21E
  8
DEFAULT
 10
-62.72783018276098
 20
196.5971845947884
 30
0.0
  0
VERTEX
  5
21F
  8
DEFAULT
 10
-62.71222132444384
 20
196.6284507364712
 30
0.0
  0
VERTEX
  5
220
  8
DEFAULT
 10
-62.69608945772054
 20
196.6591938697479
 30
0.0
  0
VERTEX
  5
221
  8
DEFAULT
 10
-62.67943096160892
 20
196.6894103736363
 30
0.0
  0
VERTEX
  5
222
  8
DEFAULT
 10
-62.66224248334769
 20
196.7190968953751
 30
0.0
  0
VERTEX
  5
223
  8
DEFAULT
 10
-62.64452093839649
 20
196.7482503504239
 30
0.0
  0
VERTEX
  5
224
  8
DEFAULT
 10
-62.62626351043586
 20
196.7768679224632
 30
0.0
  0
VERTEX
  5
225
  8
DEFAULT
 10
-62.60746765136722
 20
196.8049470633946
 30
0.0
  0
VERTEX
  5
226
  8
DEFAULT
 10
-62.58813108131294
 20
196.8324854933403
 30
0.0
  0
VERTEX
  5
227
  8
DEFAULT
 10
-62.56825178861622
 20
196.8594812006436
 30
0.0
  0
VERTEX
  5
228
  8
DEFAULT
 10
-62.54782802984123
 20
196.8859324418686
 30
0.0
  0
VERTEX
  5
229
  8
DEFAULT
 10
-62.52685832977299
 20
196.9118377418004
 30
0.0
  0
VERTEX
  5
22A
  8
DEFAULT
 10
-62.50534148141746
 20
196.9371958934448
 30
0.0
  0
VERTEX
  5
22B
  8
DEFAULT
 10
-62.48327654600148
 20
196.9620059580288
 30
0.0
  0
VERTEX
  5
22C
  8
DEFAULT
 10
-62.4606628529728
 20
196.9862672650002
 30
0.0
  0
VERTEX
  5
22D
  8
DEFAULT
 10
-62.43750000000006
 20
197.0099794120274
 30
0.0
  0
VERTEX
  5
22E
  8
DEFAULT
 10
-62.4137878529728
 20
197.0331422650002
 30
0.0
  0
VERTEX
  5
22F
  8
DEFAULT
 10
-62.38952654600149
 20
197.0557559580288
 30
0.0
  0
VERTEX
  5
230
  8
DEFAULT
 10
-62.36471648141749
 20
197.0778208934448
 30
0.0
  0
VERTEX
  5
231
  8
DEFAULT
 10
-62.33935832977302
 20
197.0993377418004
 30
0.0
  0
VERTEX
  5
232
  8
DEFAULT
 10
-62.31345302984126
 20
197.1203074418686
 30
0.0
  0
VERTEX
  5
233
  8
DEFAULT
 10
-62.28700178861625
 20
197.1407312006436
 30
0.0
  0
VERTEX
  5
234
  8
DEFAULT
 10
-62.26000608131297
 20
197.1606104933404
 30
0.0
  0
VERTEX
  5
235
  8
DEFAULT
 10
-62.23246765136726
 20
197.1799470633946
 30
0.0
  0
VERTEX
  5
236
  8
DEFAULT
 10
-62.2043885104359
 20
197.1987429224633
 30
0.0
  0
VERTEX
  5
237
  8
DEFAULT
 10
-62.17577093839653
 20
197.2170003504239
 30
0.0
  0
VERTEX
  5
238
  8
DEFAULT
 10
-62.14661748334774
 20
197.2347218953751
 30
0.0
  0
VERTEX
  5
239
  8
DEFAULT
 10
-62.11693096160897
 20
197.2519103736363
 30
0.0
  0
VERTEX
  5
23A
  8
DEFAULT
 10
-62.0867144577206
 20
197.268568869748
 30
0.0
  0
VERTEX
  5
23B
  8
DEFAULT
 10
-62.0559713244439
 20
197.2847007364713
 30
0.0
  0
VERTEX
  5
23C
  8
DEFAULT
 10
-62.02470518276104
 20
197.3003095947884
 30
0.0
  0
VERTEX
  5
23D
  8
DEFAULT
 10
-61.99291992187509
 20
197.3153993339025
 30
0.0
  0
VERTEX
  5
23E
  8
DEFAULT
 10
-61.96061969921003
 20
197.3299741112374
 30
0.0
  0
VERTEX
  5
23F
  8
DEFAULT
 10
-61.92780894041071
 20
197.3440383524381
 30
0.0
  0
VERTEX
  5
240
  8
DEFAULT
 10
-61.89449233934293
 20
197.3575967513703
 30
0.0
  0
VERTEX
  5
241
  8
DEFAULT
 10
-61.86067485809336
 20
197.3706542701207
 30
0.0
  0
VERTEX
  5
242
  8
DEFAULT
 10
-61.79155844450007
 20
197.3952878565274
 30
0.0
  0
VERTEX
  5
243
  8
DEFAULT
 10
-61.72050476074229
 20
197.4179841727697
 30
0.0
  0
VERTEX
  5
244
  8
DEFAULT
 10
-61.6475631594659
 20
197.4387925714933
 30
0.0
  0
VERTEX
  5
245
  8
DEFAULT
 10
-61.57278728485119
 20
197.4577666968786
 30
0.0
  0
VERTEX
  5
246
  8
DEFAULT
 10
-61.49623507261288
 20
197.4749644846403
 30
0.0
  0
VERTEX
  5
247
  8
DEFAULT
 10
-61.41796875000011
 20
197.4904481620275
 30
0.0
  0
VERTEX
  5
248
  8
DEFAULT
 10
-61.33805483579647
 20
197.5042842478239
 30
0.0
  0
VERTEX
  5
249
  8
DEFAULT
 10
-61.25656414031994
 20
197.5165435523473
 30
0.0
  0
VERTEX
  5
24A
  8
DEFAULT
 10
-61.17357176542293
 20
197.5273011774503
 30
0.0
  0
VERTEX
  5
24B
  8
DEFAULT
 10
-61.0891571044923
 20
197.5366365165197
 30
0.0
  0
VERTEX
  5
24C
  8
DEFAULT
 10
-60.91639995574963
 20
197.551379367777
 30
0.0
  0
VERTEX
  5
24D
  8
DEFAULT
 10
-60.73901367187511
 20
197.5614930839025
 30
0.0
  0
VERTEX
  5
24E
  8
DEFAULT
 10
-60.37358093261729
 20
197.5710603446447
 30
0.0
  0
VERTEX
  5
24F
  8
DEFAULT
 10
-60.00000000000009
 20
197.5724794120275
 30
0.0
  0
VERTEX
  5
250
  8
DEFAULT
 10
60.00000000000007
 20
197.5724794120275
 30
0.0
  0
VERTEX
  5
251
  8
DEFAULT
 10
60.37358093261725
 20
197.5710603446447
 30
0.0
  0
VERTEX
  5
252
  8
DEFAULT
 10
60.73901367187506
 20
197.5614930839025
 30
0.0
  0
VERTEX
  5
253
  8
DEFAULT
 10
60.91639995574957
 20
197.551379367777
 30
0.0
  0
VERTEX
  5
254
  8
DEFAULT
 10
61.08915710449223
 20
197.5366365165197
 30
0.0
  0
VERTEX
  5
255
  8
DEFAULT
 10
61.17357176542286
 20
197.5273011774503
 30
0.0
  0
VERTEX
  5
256
  8
DEFAULT
 10
61.25656414031987
 20
197.5165435523473
 30
0.0
  0
VERTEX
  5
257
  8
DEFAULT
 10
61.3380548357964
 20
197.5042842478239
 30
0.0
  0
VERTEX
  5
258
  8
DEFAULT
 10
61.41796875000004
 20
197.4904481620275
 30
0.0
  0
VERTEX
  5
259
  8
DEFAULT
 10
61.4962350726128
 20
197.4749644846403
 30
0.0
  0
VERTEX
  5
25A
  8
DEFAULT
 10
61.5727872848511
 20
197.4577666968786
 30
0.0
  0
VERTEX
  5
25B
  8
DEFAULT
 10
61.64756315946582
 20
197.4387925714933
 30
0.0
  0
VERTEX
  5
25C
  8
DEFAULT
 10
61.72050476074221
 20
197.4179841727697
 30
0.0
  0
VERTEX
  5
25D
  8
DEFAULT
 10
61.79155844449998
 20
197.3952878565274
 30
0.0
  0
VERTEX
  5
25E
  8
DEFAULT
 10
61.86067485809328
 20
197.3706542701207
 30
0.0
  0
VERTEX
  5
25F
  8
DEFAULT
 10
61.89449233934285
 20
197.3575967513703
 30
0.0
  0
VERTEX
  5
260
  8
DEFAULT
 10
61.92780894041063
 20
197.3440383524381
 30
0.0
  0
VERTEX
  5
261
  8
DEFAULT
 10
61.96061969920994
 20
197.3299741112374
 30
0.0
  0
VERTEX
  5
262
  8
DEFAULT
 10
61.99291992187501
 20
197.3153993339025
 30
0.0
  0
VERTEX
  5
263
  8
DEFAULT
 10
62.02470518276095
 20
197.3003095947884
 30
0.0
  0
VERTEX
  5
264
  8
DEFAULT
 10
62.05597132444382
 20
197.2847007364713
 30
0.0
  0
VERTEX
  5
265
  8
DEFAULT
 10
62.08671445772052
 20
197.268568869748
 30
0.0
  0
VERTEX
  5
266
  8
DEFAULT
 10
62.11693096160889
 20
197.2519103736363
 30
0.0
  0
VERTEX
  5
267
  8
DEFAULT
 10
62.14661748334765
 20
197.2347218953751
 30
0.0
  0
VERTEX
  5
268
  8
DEFAULT
 10
62.17577093839645
 20
197.2170003504239
 30
0.0
  0
VERTEX
  5
269
  8
DEFAULT
 10
62.20438851043582
 20
197.1987429224633
 30
0.0
  0
VERTEX
  5
26A
  8
DEFAULT
 10
62.23246765136719
 20
197.1799470633946
 30
0.0
  0
VERTEX
  5
26B
  8
DEFAULT
 10
62.26000608131289
 20
197.1606104933404
 30
0.0
  0
VERTEX
  5
26C
  8
DEFAULT
 10
62.28700178861618
 20
197.1407312006436
 30
0.0
  0
VERTEX
  5
26D
  8
DEFAULT
 10
62.31345302984118
 20
197.1203074418686
 30
0.0
  0
VERTEX
  5
26E
  8
DEFAULT
 10
62.33935832977295
 20
197.0993377418004
 30
0.0
  0
VERTEX
  5
26F
  8
DEFAULT
 10
62.36471648141742
 20
197.0778208934448
 30
0.0
  0
VERTEX
  5
270
  8
DEFAULT
 10
62.38952654600142
 20
197.0557559580288
 30
0.0
  0
VERTEX
  5
271
  8
DEFAULT
 10
62.41378785297273
 20
197.0331422650002
 30
0.0
  0
VERTEX
  5
272
  8
DEFAULT
 10
62.43749999999999
 20
197.0099794120274
 30
0.0
  0
VERTEX
  5
273
  8
DEFAULT
 10
62.46066285297273
 20
196.9862672650002
 30
0.0
  0
VERTEX
  5
274
  8
DEFAULT
 10
62.48327654600142
 20
196.9620059580289
 30
0.0
  0
VERTEX
  5
275
  8
DEFAULT
 10
62.5053414814174
 20
196.9371958934448
 30
0.0
  0
VERTEX
  5
276
  8
DEFAULT
 10
62.52685832977293
 20
196.9118377418004
 30
0.0
  0
VERTEX
  5
277
  8
DEFAULT
 10
62.54782802984116
 20
196.8859324418686
 30
0.0
  0
VERTEX
  5
278
  8
DEFAULT
 10
62.56825178861615
 20
196.8594812006436
 30
0.0
  0
VERTEX
  5
279
  8
DEFAULT
 10
62.58813108131287
 20
196.8324854933403
 30
0.0
  0
VERTEX
  5
27A
  8
DEFAULT
 10
62.60746765136716
 20
196.8049470633946
 30
0.0
  0
VERTEX
  5
27B
  8
DEFAULT
 10
62.62626351043579
 20
196.7768679224632
 30
0.0
  0
VERTEX
  5
27C
  8
DEFAULT
 10
62.64452093839643
 20
196.7482503504239
 30
0.0
  0
VERTEX
  5
27D
  8
DEFAULT
 10
62.66224248334763
 20
196.7190968953751
 30
0.0
  0
VERTEX
  5
27E
  8
DEFAULT
 10
62.67943096160886
 20
196.6894103736363
 30
0.0
  0
VERTEX
  5
27F
  8
DEFAULT
 10
62.69608945772049
 20
196.6591938697479
 30
0.0
  0
VERTEX
  5
280
  8
DEFAULT
 10
62.71222132444379
 20
196.6284507364712
 30
0.0
  0
VERTEX
  5
281
  8
DEFAULT
 10
62.72783018276093
 20
196.5971845947884
 30
0.0
  0
VERTEX
  5
282
  8
DEFAULT
 10
62.74291992187497
 20
196.5653993339024
 30
0.0
  0
VERTEX
  5
283
  8
DEFAULT
 10
62.7574946992099
 20
196.5330991112374
 30
0.0
  0
VERTEX
  5
284
  8
DEFAULT
 10
62.77155894041059
 20
196.5002883524381
 30
0.0
  0
VERTEX
  5
285
  8
DEFAULT
 10
62.7851173393428
 20
196.4669717513703
 30
0.0
  0
VERTEX
  5
286
  8
DEFAULT
 10
62.79817485809323
 20
196.4331542701207
 30
0.0
  0
VERTEX
  5
287
  8
DEFAULT
 10
62.82280844449994
 20
196.3640378565274
 30
0.0
  0
VERTEX
  5
288
  8
DEFAULT
 10
62.84550476074216
 20
196.2929841727696
 30
0.0
  0
VERTEX
  5
289
  8
DEFAULT
 10
62.86631315946576
 20
196.2200425714933
 30
0.0
  0
VERTEX
  5
28A
  8
DEFAULT
 10
62.88528728485105
 20
196.1452666968785
 30
0.0
  0
VERTEX
  5
28B
  8
DEFAULT
 10
62.90248507261273
 20
196.0687144846402
 30
0.0
  0
VERTEX
  5
28C
  8
DEFAULT
 10
62.91796874999997
 20
195.9904481620275
 30
0.0
  0
VERTEX
  5
28D
  8
DEFAULT
 10
62.93180483579633
 20
195.9105342478238
 30
0.0
  0
VERTEX
  5
28E
  8
DEFAULT
 10
62.9440641403198
 20
195.8290435523473
 30
0.0
  0
VERTEX
  5
28F
  8
DEFAULT
 10
62.95482176542279
 20
195.7460511774503
 30
0.0
  0
VERTEX
  5
290
  8
DEFAULT
 10
62.96415710449217
 20
195.6616365165196
 30
0.0
  0
VERTEX
  5
291
  8
DEFAULT
 10
62.9788999557495
 20
195.488879367777
 30
0.0
  0
VERTEX
  5
292
  8
DEFAULT
 10
62.98901367187499
 20
195.3114930839025
 30
0.0
  0
VERTEX
  5
293
  8
DEFAULT
 10
62.99858093261717
 20
194.9460603446447
 30
0.0
  0
SEQEND
  5
294
  8
DEFAULT
  0
CIRCLE
  5
295
  8
DEFAULT
 10
-57.99999999999999
 20
192.5724794120275
 30
0.0
 40
1.499999999999993
  0
CIRCLE
  5
296
  8
DEFAULT
 10
-58.00000000000002
 20
112.5724794120275
 30
0.0
 40
1.5
  0
CIRCLE
  5
297
  8
DEFAULT
 10
-57.99999999999999
 20
192.5724794120275
 30
0.0
 40
1.499999999999993
210
0.0
220
0.0
230
-1.0
  0
CIRCLE
  5
298
  8
DEFAULT
 10
-58.00000000000002
 20
112.5724794120275
 30
0.0
 40
1.5
210
0.0
220
0.0
230
-1.0
  0
CIRCLE
  5
299
  8
DEFAULT
 10
-18.99999999999999
 20
123.5724794120275
 30
0.0
 40
2.0
  0
CIRCLE
  5
29A
  8
DEFAULT
 10
19.0
 20
123.5724794120275
 30
0.0
 40
1.999999999999996
  0
POLYLINE
  5
29B
  8
DEFAULT
 66
     1
 10
0.0
 20
0.0
 30
0.0
 70
     1
  0
VERTEX
  5
29C
  8
DEFAULT
 10
-24.50000000000014
 20
147.5724794120274
 30
0.0
  0
VERTEX
  5
29D
  8
DEFAULT
 10
-17.50000000000013
 20
147.5724794120274
 30
0.0
 42
1.000000000000038
  0
VERTEX
  5
29E
  8
DEFAULT
 10
-17.50000000000011
 20
150.5724794120273
 30
0.0
  0
VERTEX
  5
29F
  8
DEFAULT
 10
-24.50000000000012
 20
150.5724794120274
 30
0.0
 42
0.9999999999999999
  0
SEQEND
  5
2A0
  8
DEFAULT
  0
POLYLINE
  5
2A1
  8
DEFAULT
 66
     1
 10
0.0
 20
0.0
 30
0.0
 70
     1
  0
VERTEX
  5
2A2
  8
DEFAULT
 10
-49.50000000000013
 20
147.5724794120275
 30
0.0
  0
VERTEX
  5
2A3
  8
DEFAULT
 10
-42.50000000000011
 20
147.5724794120275
 30
0.0
 42
0.9999999999999999
  0
VERTEX
  5
2A4
  8
DEFAULT
 10
-42.50000000000011
 20
150.5724794120275
 30
0.0
  0
VERTEX
  5
2A5
  8
DEFAULT
 10
-49.5000000000001
 20
150.5724794120275
 30
0.0
 42
1.00000000000001
  0
SEQEND
  5
2A6
  8
DEFAULT
  0
POLYLINE
  5
2A7
  8
DEFAULT
 66
     1
 10
0.0
 20
0.0
 30
0.0
 70
     1
  0
VERTEX
  5
2A8
  8
DEFAULT
 10
-49.50000000000004
 20
187.5724794120275
 30
0.0
 42
1.00000000000001
  0
VERTEX
  5
2A9
  8
DEFAULT
 10
-49.50000000000005
 20
184.5724794120275
 30
0.0
  0
VERTEX
  5
2AA
  8
DEFAULT
 10
-42.50000000000004
 20
184.5724794120275
 30
0.0
 42
0.9999999999999879
  0
VERTEX
  5
2AB
  8
DEFAULT
 10
-42.50000000000004
 20
187.5724794120275
 30
0.0
  0
SEQEND
  5
2AC
  8
DEFAULT
  0
POLYLINE
  5
2AD
  8
DEFAULT
 66
     1
 10
0.0
 20
0.0
 30
0.0
 70
     1
  0
VERTEX
  5
2AE
  8
DEFAULT
 10
-24.50000000000005
 20
187.5724794120275
 30
0.0
 42
0.9999999999999999
  0
VERTEX
  5
2AF
  8
DEFAULT
 10
-24.50000000000005
 20
184.5724794120275
 30
0.0
  0
VERTEX
  5
2B0
  8
DEFAULT
 10
-17.50000000000005
 20
184.5724794120275
 30
0.0
 42
0.9999999999999821
  0
VERTEX
  5
2B1
  8
DEFAULT
 10
-17.50000000000005
 20
187.5724794120275
 30
0.0
  0
SEQEND
  5
2B2
  8
DEFAULT
  0
POLYLINE
  5
2B3
  8
DEFAULT
 66
     1
 10
0.0
 20
0.0
 30
0.0
 70
     1
  0
VERTEX
  5
2B4
  8
DEFAULT
 10
24.50000000000012
 20
150.5724794120274
 30
0.0
 42
-0.9999999999999999
  0
VERTEX
  5
2B5
  8
DEFAULT
 10
24.50000000000014
 20
147.5724794120274
 30
0.0
  0
VERTEX
  5
2B6
  8
DEFAULT
 10
17.50000000000013
 20
147.5724794120274
 30
0.0
 42
-1.000000000000038
  0
VERTEX
  5
2B7
  8
DEFAULT
 10
17.50000000000011
 20
150.5724794120273
 30
0.0
  0
SEQEND
  5
2B8
  8
DEFAULT
  0
POLYLINE
  5
2B9
  8
DEFAULT
 66
     1
 10
0.0
 20
0.0
 30
0.0
 70
     1
  0
VERTEX
  5
2BA
  8
DEFAULT
 10
49.5000000000001
 20
150.5724794120275
 30
0.0
 42
-1.00000000000001
  0
VERTEX
  5
2BB
  8
DEFAULT
 10
49.50000000000013
 20
147.5724794120275
 30
0.0
  0
VERTEX
  5
2BC
  8
DEFAULT
 10
42.50000000000011
 20
147.5724794120275
 30
0.0
 42
-0.9999999999999999
  0
VERTEX
  5
2BD
  8
DEFAULT
 10
42.50000000000011
 20
150.5724794120275
 30
0.0
  0
SEQEND
  5
2BE
  8
DEFAULT
  0
POLYLINE
  5
2BF
  8
DEFAULT
 66
     1
 10
0.0
 20
0.0
 30
0.0
 70
     1
  0
VERTEX
  5
2C0
  8
DEFAULT
 10
42.50000000000004
 20
187.5724794120275
 30
0.0
  0
VERTEX
  5
2C1
  8
DEFAULT
 10
49.50000000000004
 20
187.5724794120275
 30
0.0
 42
-1.00000000000001
  0
VERTEX
  5
2C2
  8
DEFAULT
 10
49.50000000000005
 20
184.5724794120275
 30
0.0
  0
VERTEX
  5
2C3
  8
DEFAULT
 10
42.50000000000004
 20
184.5724794120275
 30
0.0
 42
-1.000000000000002
  0
SEQEND
  5
2C4
  8
DEFAULT
  0
POLYLINE
  5
2C5
  8
DEFAULT
 66
     1
 10
0.0
 20
0.0
 30
0.0
 70
     1
  0
VERTEX
  5
2C6
  8
DEFAULT
 10
17.50000000000005
 20
187.5724794120275
 30
0.0
  0
VERTEX
  5
2C7
  8
DEFAULT
 10
24.50000000000005
 20
187.5724794120275
 30
0.0
 42
-0.9999999999999999
  0
VERTEX
  5
2C8
  8
DEFAULT
 10
24.50000000000005
 20
184.5724794120275
 30
0.0
  0
VERTEX
  5
2C9
  8
DEFAULT
 10
17.50000000000005
 20
184.5724794120275
 30
0.0
 42
-1.000000000000001
  0
SEQEND
  5
2CA
  8
DEFAULT
  0
POLYLINE
  5
2CB
  8
DEFAULT
 66
     1
 10
0.0
 20
0.0
 30
0.0
 70
     1
  0
VERTEX
  5
2CC
  8
DEFAULT
 10
-29.5
 20
191.5724794120275
 30
0.0
 42
0.9999999999999941
  0
VERTEX
  5
2CD
  8
DEFAULT
 10
-29.5
 20
194.5724794120275
 30
0.0
  0
VERTEX
  5
2CE
  8
DEFAULT
 10
-36.5
 20
194.5724794120275
 30
0.0
 42
0.9999999999999999
  0
VERTEX
  5
2CF
  8
DEFAULT
 10
-36.5
 20
191.5724794120275
 30
0.0
  0
SEQEND
  5
2D0
  8
DEFAULT
  0
POLYLINE
  5
2D1
  8
DEFAULT
 66
     1
 10
0.0
 20
0.0
 30
0.0
 70
     1
  0
VERTEX
  5
2D2
  8
DEFAULT
 10
37.50000000000001
 20
191.7106767463573
 30
0.0
  0
VERTEX
  5
2D3
  8
DEFAULT
 10
30.50000000000001
 20
191.7106767463573
 30
0.0
 42
-0.9999999999999941
  0
VERTEX
  5
2D4
  8
DEFAULT
 10
30.50000000000001
 20
194.7106767463573
 30
0.0
  0
VERTEX
  5
2D5
  8
DEFAULT
 10
37.50000000000001
 20
194.7106767463573
 30
0.0
 42
-0.9999999999999903
  0
SEQEND
  5
2D6
  8
DEFAULT
  0
POLYLINE
  5
2D7
  8
DEFAULT
 66
     1
 10
0.0
 20
0.0
 30
0.0
 70
     1
  0
VERTEX
  5
2D8
  8
DEFAULT
 10
-29.49999999999999
 20
113.5724795868485
 30
0.0
  0
VERTEX
  5
2D9
  8
DEFAULT
 10
-36.49999999999999
 20
113.5724795868485
 30
0.0
 42
1.000000000000007
  0
VERTEX
  5
2DA
  8
DEFAULT
 10
-36.49999999999999
 20
110.5724795868485
 30
0.0
  0
VERTEX
  5
2DB
  8
DEFAULT
 10
-29.49999999999999
 20
110.5724795868485
 30
0.0
 42
0.9999999999999999
  0
SEQEND
  5
2DC
  8
DEFAULT
  0
POLYLINE
  5
2DD
  8
DEFAULT
 66
     1
 10
0.0
 20
0.0
 30
0.0
 70
     1
  0
VERTEX
  5
2DE
  8
DEFAULT
 10
30.49999999999999
 20
110.7106769211783
 30
0.0
 42
-1.000000000000006
  0
VERTEX
  5
2DF
  8
DEFAULT
 10
30.49999999999999
 20
113.7106769211783
 30
0.0
  0
VERTEX
  5
2E0
  8
DEFAULT
 10
37.49999999999999
 20
113.7106769211783
 30
0.0
 42
-1.000000000000002
  0
VERTEX
  5
2E1
  8
DEFAULT
 10
37.49999999999999
 20
110.7106769211783
 30
0.0
  0
SEQEND
  5
2E2
  8
DEFAULT
  0
POLYLINE
  5
2E3
  8
DEFAULT
 66
     1
 10
0.0
 20
0.0
 30
0.0
 70
     1
  0
VERTEX
  5
2E4
  8
DEFAULT
 10
-60.0
 20
151.5724794120276
 30
0.0
  0
VERTEX
  5
2E5
  8
DEFAULT
 10
-60.0
 20
157.5724794120275
 30
0.0
  0
VERTEX
  5
2E6
  8
DEFAULT
 10
-57.0
 20
157.5724794120275
 30
0.0
  0
VERTEX
  5
2E7
  8
DEFAULT
 10
-57.0
 20
151.5724794120276
 30
0.0
  0
SEQEND
  5
2E8
  8
DEFAULT
  0
POLYLINE
  5
2E9
  8
DEFAULT
 66
     1
 10
0.0
 20
0.0
 30
0.0
 70
     1
  0
VERTEX
  5
2EA
  8
DEFAULT
 10
-60.0
 20
162.5724794120275
 30
0.0
  0
VERTEX
  5
2EB
  8
DEFAULT
 10
-57.0
 20
162.5724794120275
 30
0.0
  0
VERTEX
  5
2EC
  8
DEFAULT
 10
-57.0
 20
172.5724794120275
 30
0.0
  0
VERTEX
  5
2ED
  8
DEFAULT
 10
-60.0
 20
172.5724794120275
 30
0.0
  0
SEQEND
  5
2EE
  8
DEFAULT
  0
POLYLINE
  5
2EF
  8
DEFAULT
 66
     1
 10
0.0
 20
0.0
 30
0.0
 70
     1
  0
VERTEX
  5
2F0
  8
DEFAULT
 10
-60.0
 20
177.5724794120275
 30
0.0
  0
VERTEX
  5
2F1
  8
DEFAULT
 10
-57.0
 20
177.5724794120275
 30
0.0
  0
VERTEX
  5
2F2
  8
DEFAULT
 10
-57.0
 20
183.5724794120275
 30
0.0
  0
VERTEX
  5
2F3
  8
DEFAULT
 10
-60.0
 20
183.5724794120275
 30
0.0
  0
SEQEND
  5
2F4
  8
DEFAULT
  0
POLYLINE
  5
2F5
  8
DEFAULT
 66
     1
 10
0.0
 20
0.0
 30
0.0
 70
     1
  0
VERTEX
  5
2F6
  8
DEFAULT
 10
-36.0
 20
151.5724794120276
 30
0.0
  0
VERTEX
  5
2F7
  8
DEFAULT
 10
-33.0
 20
151.5724794120276
 30
0.0
  0
VERTEX
  5
2F8
  8
DEFAULT
 10
-33.0
 20
157.5724794120275
 30
0.0
  0
VERTEX
  5
2F9
  8
DEFAULT
 10
-36.0
 20
157.5724794120275
 30
0.0
  0
SEQEND
  5
2FA
  8
DEFAULT
  0
POLYLINE
  5
2FB
  8
DEFAULT
 66
     1
 10
0.0
 20
0.0
 30
0.0
 70
     1
  0
VERTEX
  5
2FC
  8
DEFAULT
 10
-36.0
 20
162.5724794120275
 30
0.0
  0
VERTEX
  5
2FD
  8
DEFAULT
 10
-33.0
 20
162.5724794120275
 30
0.0
  0
VERTEX
  5
2FE
  8
DEFAULT
 10
-33.0
 20
172.5724794120275
 30
0.0
  0
VERTEX
  5
2FF
  8
DEFAULT
 10
-36.0
 20
172.5724794120275
 30
0.0
  0
SEQEND
  5
300
  8
DEFAULT
  0
POLYLINE
  5
301
  8
DEFAULT
 66
     1
 10
0.0
 20
0.0
 30
0.0
 70
     1
  0
VERTEX
  5
302
  8
DEFAULT
 10
-36.0
 20
183.5724794120275
 30
0.0
  0
VERTEX
  5
303
  8
DEFAULT
 10
-36.0
 20
177.5724794120275
 30
0.0
  0
VERTEX
  5
304
  8
DEFAULT
 10
-33.0
 20
177.5724794120275
 30
0.0
  0
VERTEX
  5
305
  8
DEFAULT
 10
-33.0
 20
183.5724794120275
 30
0.0
  0
SEQEND
  5
306
  8
DEFAULT
  0
POLYLINE
  5
307
  8
DEFAULT
 66
     1
 10
0.0
 20
0.0
 30
0.0
 70
     1
  0
VERTEX
  5
308
  8
DEFAULT
 10
-11.4
 20
151.5724794120276
 30
0.0
  0
VERTEX
  5
309
  8
DEFAULT
 10
-8.4
 20
151.5724794120276
 30
0.0
  0
VERTEX
  5
30A
  8
DEFAULT
 10
-8.4
 20
157.5724794120275
 30
0.0
  0
VERTEX
  5
30B
  8
DEFAULT
 10
-11.4
 20
157.5724794120275
 30
0.0
  0
SEQEND
  5
30C
  8
DEFAULT
  0
POLYLINE
  5
30D
  8
DEFAULT
 66
     1
 10
0.0
 20
0.0
 30
0.0
 70
     1
  0
VERTEX
  5
30E
  8
DEFAULT
 10
-11.4
 20
162.5724794120275
 30
0.0
  0
VERTEX
  5
30F
  8
DEFAULT
 10
-8.4
 20
162.5724794120275
 30
0.0
  0
VERTEX
  5
310
  8
DEFAULT
 10
-8.4
 20
172.5724794120275
 30
0.0
  0
VERTEX
  5
311
  8
DEFAULT
 10
-11.4
 20
172.5724794120275
 30
0.0
  0
SEQEND
  5
312
  8
DEFAULT
  0
POLYLINE
  5
313
  8
DEFAULT
 66
     1
 10
0.0
 20
0.0
 30
0.0
 70
     1
  0
VERTEX
  5
314
  8
DEFAULT
 10
-11.4
 20
183.5724794120275
 30
0.0
  0
VERTEX
  5
315
  8
DEFAULT
 10
-11.4
 20
177.5724794120275
 30
0.0
  0
VERTEX
  5
316
  8
DEFAULT
 10
-8.4
 20
177.5724794120275
 30
0.0
  0
VERTEX
  5
317
  8
DEFAULT
 10
-8.4
 20
183.5724794120275
 30
0.0
  0
SEQEND
  5
318
  8
DEFAULT
  0
POLYLINE
  5
319
  8
DEFAULT
 66
     1
 10
0.0
 20
0.0
 30
0.0
 70
     1
  0
VERTEX
  5
31A
  8
DEFAULT
 10
60.0
 20
157.5724794120275
 30
0.0
  0
VERTEX
  5
31B
  8
DEFAULT
 10
57.0
 20
157.5724794120275
 30
0.0
  0
VERTEX
  5
31C
  8
DEFAULT
 10
57.0
 20
151.5724794120276
 30
0.0
  0
VERTEX
  5
31D
  8
DEFAULT
 10
60.0
 20
151.5724794120276
 30
0.0
  0
SEQEND
  5
31E
  8
DEFAULT
  0
POLYLINE
  5
31F
  8
DEFAULT
 66
     1
 10
0.0
 20
0.0
 30
0.0
 70
     1
  0
VERTEX
  5
320
  8
DEFAULT
 10
60.0
 20
162.5724794120275
 30
0.0
  0
VERTEX
  5
321
  8
DEFAULT
 10
60.0
 20
172.5724794120275
 30
0.0
  0
VERTEX
  5
322
  8
DEFAULT
 10
57.0
 20
172.5724794120275
 30
0.0
  0
VERTEX
  5
323
  8
DEFAULT
 10
57.0
 20
162.5724794120275
 30
0.0
  0
SEQEND
  5
324
  8
DEFAULT
  0
POLYLINE
  5
325
  8
DEFAULT
 66
     1
 10
0.0
 20
0.0
 30
0.0
 70
     1
  0
VERTEX
  5
326
  8
DEFAULT
 10
60.0
 20
183.5724794120275
 30
0.0
  0
VERTEX
  5
327
  8
DEFAULT
 10
60.0
 20
177.5724794120275
 30
0.0
  0
VERTEX
  5
328
  8
DEFAULT
 10
57.0
 20
177.5724794120275
 30
0.0
  0
VERTEX
  5
329
  8
DEFAULT
 10
57.0
 20
183.5724794120275
 30
0.0
  0
SEQEND
  5
32A
  8
DEFAULT
  0
POLYLINE
  5
32B
  8
DEFAULT
 66
     1
 10
0.0
 20
0.0
 30
0.0
 70
     1
  0
VERTEX
  5
32C
  8
DEFAULT
 10
36.0
 20
151.5724794120276
 30
0.0
  0
VERTEX
  5
32D
  8
DEFAULT
 10
36.0
 20
157.5724794120275
 30
0.0
  0
VERTEX
  5
32E
  8
DEFAULT
 10
33.0
 20
157.5724794120275
 30
0.0
  0
VERTEX
  5
32F
  8
DEFAULT
 10
33.0
 20
151.5724794120276
 30
0.0
  0
SEQEND
  5
330
  8
DEFAULT
  0
POLYLINE
  5
331
  8
DEFAULT
 66
     1
 10
0.0
 20
0.0
 30
0.0
 70
     1
  0
VERTEX
  5
332
  8
DEFAULT
 10
36.0
 20
162.5724794120275
 30
0.0
  0
VERTEX
  5
333
  8
DEFAULT
 10
36.0
 20
172.5724794120275
 30
0.0
  0
VERTEX
  5
334
  8
DEFAULT
 10
33.0
 20
172.5724794120275
 30
0.0
  0
VERTEX
  5
335
  8
DEFAULT
 10
33.0
 20
162.5724794120275
 30
0.0
  0
SEQEND
  5
336
  8
DEFAULT
  0
POLYLINE
  5
337
  8
DEFAULT
 66
     1
 10
0.0
 20
0.0
 30
0.0
 70
     1
  0
VERTEX
  5
338
  8
DEFAULT
 10
36.0
 20
183.5724794120275
 30
0.0
  0
VERTEX
  5
339
  8
DEFAULT
 10
33.0
 20
183.5724794120275
 30
0.0
  0
VERTEX
  5
33A
  8
DEFAULT
 10
33.0
 20
177.5724794120275
 30
0.0
  0
VERTEX
  5
33B
  8
DEFAULT
 10
36.0
 20
177.5724794120275
 30
0.0
  0
SEQEND
  5
33C
  8
DEFAULT
  0
POLYLINE
  5
33D
  8
DEFAULT
 66
     1
 10
0.0
 20
0.0
 30
0.0
 70
     1
  0
VERTEX
  5
33E
  8
DEFAULT
 10
11.4
 20
151.5724794120276
 30
0.0
  0
VERTEX
  5
33F
  8
DEFAULT
 10
11.4
 20
157.5724794120275
 30
0.0
  0
VERTEX
  5
340
  8
DEFAULT
 10
8.4
 20
157.5724794120275
 30
0.0
  0
VERTEX
  5
341
  8
DEFAULT
 10
8.4
 20
151.5724794120276
 30
0.0
  0
SEQEND
  5
342
  8
DEFAULT
  0
POLYLINE
  5
343
  8
DEFAULT
 66
     1
 10
0.0
 20
0.0
 30
0.0
 70
     1
  0
VERTEX
  5
344
  8
DEFAULT
 10
11.4
 20
162.5724794120275
 30
0.0
  0
VERTEX
  5
345
  8
DEFAULT
 10
11.4
 20
172.5724794120275
 30
0.0
  0
VERTEX
  5
346
  8
DEFAULT
 10
8.4
 20
172.5724794120275
 30
0.0
  0
VERTEX
  5
347
  8
DEFAULT
 10
8.4
 20
162.5724794120275
 30
0.0
  0
SEQEND
  5
348
  8
DEFAULT
  0
POLYLINE
  5
349
  8
DEFAULT
 66
     1
 10
0.0
 20
0.0
 30
0.0
 70
     1
  0
VERTEX
  5
34A
  8
DEFAULT
 10
11.4
 20
183.5724794120275
 30
0.0
  0
VERTEX
  5
34B
  8
DEFAULT
 10
8.4
 20
183.5724794120275
 30
0.0
  0
VERTEX
  5
34C
  8
DEFAULT
 10
8.4
 20
177.5724794120275
 30
0.0
  0
VERTEX
  5
34D
  8
DEFAULT
 10
11.4
 20
177.5724794120275
 30
0.0
  0
SEQEND
  5
34E
  8
DEFAULT
  0
CIRCLE
  5
34F
  8
DEFAULT
 10
135.0231434742813
 20
266.1328139955239
 30
-17.99999999999999
 40
2.0
  0
CIRCLE
  5
350
  8
DEFAULT
 10
173.0231434742813
 20
266.1328139955239
 30
-17.99999999999999
 40
2.0
  0
POLYLINE
  5
351
  8
DEFAULT
 66
     1
 10
0.0
 20
0.0
 30
-17.99999999999999
 70
     1
  0
VERTEX
  5
352
  8
DEFAULT
 10
173.237429188567
 20
272.1289862439381
 30
-17.99999999999999
 42
-0.9649012813540077
  0
VERTEX
  5
353
  8
DEFAULT
 10
173.237429188567
 20
260.1366417471095
 30
-17.99999999999999
 42
0.2322206995328793
  0
VERTEX
  5
354
  8
DEFAULT
 10
167.0231434742813
 20
256.8054349424351
 30
-17.99999999999999
 42
-0.5132785343777688
  0
VERTEX
  5
355
  8
DEFAULT
 10
141.0231434742813
 20
256.8054349424351
 30
-17.99999999999999
 42
0.2322206995328915
  0
VERTEX
  5
356
  8
DEFAULT
 10
134.8088577599956
 20
260.1366417471096
 30
-17.99999999999999
 42
-0.9649012813540072
  0
VERTEX
  5
357
  8
DEFAULT
 10
134.8088577599956
 20
272.1289862439381
 30
-17.99999999999999
 42
0.2322206995329056
  0
VERTEX
  5
358
  8
DEFAULT
 10
141.0231434742813
 20
275.4601930486127
 30
-17.99999999999999
 42
-0.5132785343777851
  0
VERTEX
  5
359
  8
DEFAULT
 10
167.0231434742813
 20
275.4601930486127
 30
-17.99999999999999
 42
0.2322206995328872
  0
SEQEND
  5
35A
  8
DEFAULT
  0
POLYLINE
  5
35B
  8
DEFAULT
 66
     1
 10
0.0
 20
0.0
 30
-17.99999999999999
 70
     1
  0
VERTEX
  5
35C
  8
DEFAULT
 10
173.237429188567
 20
237.7308764602769
 30
-17.99999999999999
 42
-0.9649012813540188
  0
VERTEX
  5
35D
  8
DEFAULT
 10
173.237429188567
 20
225.7385319634483
 30
-17.99999999999999
 42
0.2322206995328812
  0
VERTEX
  5
35E
  8
DEFAULT
 10
167.0231434742813
 20
222.4073251587739
 30
-17.99999999999999
 42
-0.5132785343777816
  0
VERTEX
  5
35F
  8
DEFAULT
 10
141.0231434742814
 20
222.4073251587739
 30
-17.99999999999999
 42
0.2322206995328917
  0
VERTEX
  5
360
  8
DEFAULT
 10
134.8088577599956
 20
225.7385319634485
 30
-17.99999999999999
 42
-0.9649012813540185
  0
VERTEX
  5
361
  8
DEFAULT
 10
134.8088577599956
 20
237.7308764602769
 30
-17.99999999999999
 42
0.232220699532892
  0
VERTEX
  5
362
  8
DEFAULT
 10
141.0231434742813
 20
241.0620832649515
 30
-17.99999999999999
 42
-0.5132785343777851
  0
VERTEX
  5
363
  8
DEFAULT
 10
167.0231434742813
 20
241.0620832649515
 30
-17.99999999999999
 42
0.2322206995328998
  0
SEQEND
  5
364
  8
DEFAULT
  0
CIRCLE
  5
365
  8
DEFAULT
 10
173.0231434742813
 20
231.7347042118627
 30
-17.99999999999999
 40
2.0
  0
CIRCLE
  5
366
  8
DEFAULT
 10
135.0231434742813
 20
231.7347042118627
 30
-17.99999999999999
 40
2.0
  0
CIRCLE
  5
367
  8
DEFAULT
 10
84.12512737162817
 20
231.7347042118627
 30
-17.99999999999999
 40
2.000000000000014
  0
CIRCLE
  5
368
  8
DEFAULT
 10
122.1251273716281
 20
231.7347042118627
 30
-17.99999999999999
 40
1.999999999999986
  0
POLYLINE
  5
369
  8
DEFAULT
 66
     1
 10
0.0
 20
0.0
 30
-17.99999999999999
 70
     1
  0
VERTEX
  5
36A
  8
DEFAULT
 10
122.3394130859139
 20
237.7308764602769
 30
-17.99999999999999
 42
-0.964901281354015
  0
VERTEX
  5
36B
  8
DEFAULT
 10
122.3394130859139
 20
225.7385319634485
 30
-17.99999999999999
 42
0.2322206995328857
  0
VERTEX
  5
36C
  8
DEFAULT
 10
116.1251273716282
 20
222.4073251587739
 30
-17.99999999999999
 42
-0.5132785343777827
  0
VERTEX
  5
36D
  8
DEFAULT
 10
90.12512737162812
 20
222.4073251587738
 30
-17.99999999999999
 42
0.2322206995329043
  0
VERTEX
  5
36E
  8
DEFAULT
 10
83.9108416573424
 20
225.7385319634485
 30
-17.99999999999999
 42
-0.9649012813540158
  0
VERTEX
  5
36F
  8
DEFAULT
 10
83.91084165734244
 20
237.7308764602767
 30
-17.99999999999999
 42
0.2322206995328815
  0
VERTEX
  5
370
  8
DEFAULT
 10
90.12512737162814
 20
241.0620832649515
 30
-17.99999999999999
 42
-0.5132785343777817
  0
VERTEX
  5
371
  8
DEFAULT
 10
116.1251273716282
 20
241.0620832649515
 30
-17.99999999999999
 42
0.2322206995328908
  0
SEQEND
  5
372
  8
DEFAULT
  0
POLYLINE
  5
373
  8
DEFAULT
 66
     1
 10
0.0
 20
0.0
 30
-17.99999999999999
 70
     1
  0
VERTEX
  5
374
  8
DEFAULT
 10
122.3394130859139
 20
272.1289862439381
 30
-17.99999999999999
 42
-0.9649012813540038
  0
VERTEX
  5
375
  8
DEFAULT
 10
122.3394130859139
 20
260.1366417471096
 30
-17.99999999999999
 42
0.2322206995328743
  0
VERTEX
  5
376
  8
DEFAULT
 10
116.1251273716281
 20
256.8054349424351
 30
-17.99999999999999
 42
-0.5132785343777673
  0
VERTEX
  5
377
  8
DEFAULT
 10
90.12512737162814
 20
256.8054349424351
 30
-17.99999999999999
 42
0.2322206995328957
  0
VERTEX
  5
378
  8
DEFAULT
 10
83.91084165734239
 20
260.1366417471095
 30
-17.99999999999999
 42
-0.9649012813540003
  0
VERTEX
  5
379
  8
DEFAULT
 10
83.91084165734244
 20
272.1289862439381
 30
-17.99999999999999
 42
0.2322206995329054
  0
VERTEX
  5
37A
  8
DEFAULT
 10
90.12512737162812
 20
275.4601930486127
 30
-17.99999999999999
 42
-0.5132785343777931
  0
VERTEX
  5
37B
  8
DEFAULT
 10
116.1251273716282
 20
275.4601930486126
 30
-17.99999999999999
 42
0.2322206995328856
  0
SEQEND
  5
37C
  8
DEFAULT
  0
CIRCLE
  5
37D
  8
DEFAULT
 10
122.1251273716282
 20
266.1328139955239
 30
-17.99999999999999
 40
2.0
  0
CIRCLE
  5
37E
  8
DEFAULT
 10
84.12512737162815
 20
266.1328139955239
 30
-17.99999999999999
 40
2.0
  0
CIRCLE
  5
37F
  8
DEFAULT
 10
88.73879085259942
 20
211.2183855661715
 30
0.0
 40
21.50000038146972
210
0.0
220
0.0
230
-1.0
  0
POLYLINE
  5
380
  8
DEFAULT
 66
     1
 10
0.0
 20
0.0
 30
0.0
 70
     1
  0
VERTEX
  5
381
  8
DEFAULT
 10
-87.38121880322429
 20
209.8257464890227
 30
0.0
  0
VERTEX
  5
382
  8
DEFAULT
 10
-87.38121880322426
 20
212.6110246433205
 30
0.0
 42
2.380476142847514
  0
SEQEND
  5
383
  8
DEFAULT
  0
POLYLINE
  5
384
  8
DEFAULT
 66
     1
 10
0.0
 20
0.0
 30
0.0
 70
     1
  0
VERTEX
  5
385
  8
DEFAULT
 10
-87.38121880322429
 20
255.3998756814674
 30
0.0
  0
VERTEX
  5
386
  8
DEFAULT
 10
-87.38121880322434
 20
258.1851538357653
 30
0.0
 42
2.38047614284765
  0
SEQEND
  5
387
  8
DEFAULT
  0
CIRCLE
  5
388
  8
DEFAULT
 10
88.73879085259946
 20
256.7925147586163
 30
0.0
 40
21.50000038146968
210
0.0
220
0.0
230
-1.0
  0
POLYLINE
  5
389
  8
DEFAULT
 66
     1
 10
0.0
 20
0.0
 30
0.0
 70
     1
  0
VERTEX
  5
38A
  8
DEFAULT
 10
23.03064033369295
 20
264.9024069999116
 30
0.0
 42
-0.4698819168635593
  0
VERTEX
  5
38B
  8
DEFAULT
 10
8.215825165665455
 20
252.6186115466379
 30
0.0
 42
0.4698819168635117
  0
VERTEX
  5
38C
  8
DEFAULT
 10
7.030639952223228
 20
251.635907910376
 30
0.0
  0
VERTEX
  5
38D
  8
DEFAULT
 10
7.030639952223254
 20
249.9024069999117
 30
0.0
 42
0.4142135623731191
  0
VERTEX
  5
38E
  8
DEFAULT
 10
8.030639952223268
 20
248.9024069999117
 30
0.0
  0
VERTEX
  5
38F
  8
DEFAULT
 10
14.03063976148837
 20
248.9024069999117
 30
0.0
  0
VERTEX
  5
390
  8
DEFAULT
 10
14.03063976148836
 20
249.9024069999116
 30
0.0
  0
VERTEX
  5
391
  8
DEFAULT
 10
17.03063999990694
 20
249.9024069999116
 30
0.0
  0
VERTEX
  5
392
  8
DEFAULT
 10
17.03063999990695
 20
248.9024069999117
 30
0.0
  0
VERTEX
  5
393
  8
DEFAULT
 10
23.03063995222323
 20
248.9024069999117
 30
0.0
  0
VERTEX
  5
394
  8
DEFAULT
 10
23.03063995222323
 20
251.9024069999116
 30
0.0
  0
VERTEX
  5
395
  8
DEFAULT
 10
26.03063995222323
 20
251.9024069999116
 30
0.0
  0
VERTEX
  5
396
  8
DEFAULT
 10
26.03063995222323
 20
248.9024069999117
 30
0.0
  0
VERTEX
  5
397
  8
DEFAULT
 10
29.03064071516267
 20
248.9024069999117
 30
0.0
  0
VERTEX
  5
398
  8
DEFAULT
 10
29.03064071516267
 20
254.9024069999116
 30
0.0
  0
VERTEX
  5
399
  8
DEFAULT
 10
26.0306407151626
 20
254.9024069999116
 30
0.0
  0
VERTEX
  5
39A
  8
DEFAULT
 10
26.03064071516264
 20
259.9024069999116
 30
0.0
  0
VERTEX
  5
39B
  8
DEFAULT
 10
29.03064071516267
 20
259.9024069999116
 30
0.0
  0
VERTEX
  5
39C
  8
DEFAULT
 10
29.03064071516267
 20
269.9024069999116
 30
0.0
  0
VERTEX
  5
39D
  8
DEFAULT
 10
26.03064071516264
 20
269.9024069999116
 30
0.0
  0
VERTEX
  5
39E
  8
DEFAULT
 10
26.0306407151626
 20
274.9024069999116
 30
0.0
  0
VERTEX
  5
39F
  8
DEFAULT
 10
29.03064071516267
 20
274.9024069999116
 30
0.0
  0
VERTEX
  5
3A0
  8
DEFAULT
 10
29.03064071516267
 20
280.9024069999116
 30
0.0
  0
VERTEX
  5
3A1
  8
DEFAULT
 10
26.03063995222323
 20
280.9024069999116
 30
0.0
  0
VERTEX
  5
3A2
  8
DEFAULT
 10
26.03063995222323
 20
277.9024069999116
 30
0.0
  0
VERTEX
  5
3A3
  8
DEFAULT
 10
23.03063995222323
 20
277.9024069999116
 30
0.0
  0
VERTEX
  5
3A4
  8
DEFAULT
 10
23.03063995222323
 20
280.9024069999116
 30
0.0
  0
VERTEX
  5
3A5
  8
DEFAULT
 10
17.03063999990695
 20
280.9024069999116
 30
0.0
  0
VERTEX
  5
3A6
  8
DEFAULT
 10
17.03063999990694
 20
279.9024069999116
 30
0.0
  0
VERTEX
  5
3A7
  8
DEFAULT
 10
14.03063976148836
 20
279.9024069999116
 30
0.0
  0
VERTEX
  5
3A8
  8
DEFAULT
 10
14.03063976148837
 20
280.9024069999116
 30
0.0
  0
VERTEX
  5
3A9
  8
DEFAULT
 10
8.030639952223268
 20
280.9024069999116
 30
0.0
 42
0.4142135623730989
  0
VERTEX
  5
3AA
  8
DEFAULT
 10
7.030639952223254
 20
279.9024069999116
 30
0.0
  0
VERTEX
  5
3AB
  8
DEFAULT
 10
7.030639952223254
 20
278.1689060894473
 30
0.0
 42
0.4698819168635628
  0
VERTEX
  5
3AC
  8
DEFAULT
 10
8.21582516566545
 20
277.1862024531854
 30
0.0
 42
-0.4698819168635634
  0
SEQEND
  5
3AD
  8
DEFAULT
  0
POLYLINE
  5
3AE
  8
DEFAULT
 66
     1
 10
0.0
 20
0.0
 30
0.0
 70
     1
  0
VERTEX
  5
3AF
  8
DEFAULT
 10
46.0240252478283
 20
264.9024069999116
 30
0.0
 42
-0.4698819168635593
  0
VERTEX
  5
3B0
  8
DEFAULT
 10
31.20921007980079
 20
252.6186115466379
 30
0.0
 42
0.4698819168635092
  0
VERTEX
  5
3B1
  8
DEFAULT
 10
30.02402486635858
 20
251.635907910376
 30
0.0
  0
VERTEX
  5
3B2
  8
DEFAULT
 10
30.02402486635859
 20
249.9024069999117
 30
0.0
 42
0.4142135623731284
  0
VERTEX
  5
3B3
  8
DEFAULT
 10
31.02402486635861
 20
248.9024069999117
 30
0.0
  0
VERTEX
  5
3B4
  8
DEFAULT
 10
37.02402467562371
 20
248.9024069999117
 30
0.0
  0
VERTEX
  5
3B5
  8
DEFAULT
 10
37.0240246756237
 20
249.9024069999116
 30
0.0
  0
VERTEX
  5
3B6
  8
DEFAULT
 10
40.02402491404228
 20
249.9024069999116
 30
0.0
  0
VERTEX
  5
3B7
  8
DEFAULT
 10
40.02402491404229
 20
248.9024069999117
 30
0.0
  0
VERTEX
  5
3B8
  8
DEFAULT
 10
46.02402486635857
 20
248.9024069999117
 30
0.0
  0
VERTEX
  5
3B9
  8
DEFAULT
 10
46.02402486635857
 20
251.9024069999116
 30
0.0
  0
VERTEX
  5
3BA
  8
DEFAULT
 10
49.02402486635857
 20
251.9024069999116
 30
0.0
  0
VERTEX
  5
3BB
  8
DEFAULT
 10
49.02402486635857
 20
248.9024069999117
 30
0.0
  0
VERTEX
  5
3BC
  8
DEFAULT
 10
52.02402562929801
 20
248.9024069999117
 30
0.0
  0
VERTEX
  5
3BD
  8
DEFAULT
 10
52.02402562929801
 20
254.9024069999116
 30
0.0
  0
VERTEX
  5
3BE
  8
DEFAULT
 10
49.02402562929795
 20
254.9024069999116
 30
0.0
  0
VERTEX
  5
3BF
  8
DEFAULT
 10
49.02402562929798
 20
259.9024069999116
 30
0.0
  0
VERTEX
  5
3C0
  8
DEFAULT
 10
52.02402562929801
 20
259.9024069999116
 30
0.0
  0
VERTEX
  5
3C1
  8
DEFAULT
 10
52.02402562929801
 20
269.9024069999116
 30
0.0
  0
VERTEX
  5
3C2
  8
DEFAULT
 10
49.02402562929798
 20
269.9024069999116
 30
0.0
  0
VERTEX
  5
3C3
  8
DEFAULT
 10
49.02402562929795
 20
274.9024069999116
 30
0.0
  0
VERTEX
  5
3C4
  8
DEFAULT
 10
52.02402562929801
 20
274.9024069999116
 30
0.0
  0
VERTEX
  5
3C5
  8
DEFAULT
 10
52.02402562929801
 20
280.9024069999116
 30
0.0
  0
VERTEX
  5
3C6
  8
DEFAULT
 10
49.02402486635857
 20
280.9024069999116
 30
0.0
  0
VERTEX
  5
3C7
  8
DEFAULT
 10
49.02402486635857
 20
277.9024069999116
 30
0.0
  0
VERTEX
  5
3C8
  8
DEFAULT
 10
46.02402486635857
 20
277.9024069999116
 30
0.0
  0
VERTEX
  5
3C9
  8
DEFAULT
 10
46.02402486635857
 20
280.9024069999116
 30
0.0
  0
VERTEX
  5
3CA
  8
DEFAULT
 10
40.02402491404229
 20
280.9024069999116
 30
0.0
  0
VERTEX
  5
3CB
  8
DEFAULT
 10
40.02402491404228
 20
279.9024069999116
 30
0.0
  0
VERTEX
  5
3CC
  8
DEFAULT
 10
37.0240246756237
 20
279.9024069999116
 30
0.0
  0
VERTEX
  5
3CD
  8
DEFAULT
 10
37.02402467562371
 20
280.9024069999116
 30
0.0
  0
VERTEX
  5
3CE
  8
DEFAULT
 10
31.02402486635861
 20
280.9024069999116
 30
0.0
 42
0.414213562373123
  0
VERTEX
  5
3CF
  8
DEFAULT
 10
30.02402486635863
 20
279.9024069999116
 30
0.0
  0
VERTEX
  5
3D0
  8
DEFAULT
 10
30.02402486635859
 20
278.1689060894473
 30
0.0
 42
0.4698819168635628
  0
VERTEX
  5
3D1
  8
DEFAULT
 10
31.20921007980079
 20
277.1862024531854
 30
0.0
 42
-0.4698819168635623
  0
SEQEND
  5
3D2
  8
DEFAULT
  0
POLYLINE
  5
3D3
  8
DEFAULT
 66
     1
 10
0.0
 20
0.0
 30
0.0
 70
     1
  0
VERTEX
  5
3D4
  8
DEFAULT
 10
69.01741016196364
 20
264.9024069999116
 30
0.0
 42
-0.4698819168635597
  0
VERTEX
  5
3D5
  8
DEFAULT
 10
54.20259499393614
 20
252.6186115466379
 30
0.0
 42
0.46988191686349
  0
VERTEX
  5
3D6
  8
DEFAULT
 10
53.01740978049392
 20
251.635907910376
 30
0.0
  0
VERTEX
  5
3D7
  8
DEFAULT
 10
53.01740978049394
 20
249.9024069999117
 30
0.0
 42
0.4142135623731157
  0
VERTEX
  5
3D8
  8
DEFAULT
 10
54.01740978049396
 20
248.9024069999117
 30
0.0
  0
VERTEX
  5
3D9
  8
DEFAULT
 10
60.01740958975906
 20
248.9024069999117
 30
0.0
  0
VERTEX
  5
3DA
  8
DEFAULT
 10
60.01740958975905
 20
249.9024069999116
 30
0.0
  0
VERTEX
  5
3DB
  8
DEFAULT
 10
63.01740982817763
 20
249.9024069999116
 30
0.0
  0
VERTEX
  5
3DC
  8
DEFAULT
 10
63.01740982817764
 20
248.9024069999117
 30
0.0
  0
VERTEX
  5
3DD
  8
DEFAULT
 10
69.01740978049392
 20
248.9024069999117
 30
0.0
  0
VERTEX
  5
3DE
  8
DEFAULT
 10
69.01740978049392
 20
251.9024069999116
 30
0.0
  0
VERTEX
  5
3DF
  8
DEFAULT
 10
72.01740978049392
 20
251.9024069999116
 30
0.0
  0
VERTEX
  5
3E0
  8
DEFAULT
 10
72.01740978049392
 20
248.9024069999117
 30
0.0
  0
VERTEX
  5
3E1
  8
DEFAULT
 10
75.01741054343336
 20
248.9024069999117
 30
0.0
  0
VERTEX
  5
3E2
  8
DEFAULT
 10
75.01741054343336
 20
254.9024069999116
 30
0.0
  0
VERTEX
  5
3E3
  8
DEFAULT
 10
72.0174105434333
 20
254.9024069999116
 30
0.0
  0
VERTEX
  5
3E4
  8
DEFAULT
 10
72.01741054343333
 20
259.9024069999116
 30
0.0
  0
VERTEX
  5
3E5
  8
DEFAULT
 10
75.01741054343336
 20
259.9024069999116
 30
0.0
  0
VERTEX
  5
3E6
  8
DEFAULT
 10
75.01741054343336
 20
269.9024069999116
 30
0.0
  0
VERTEX
  5
3E7
  8
DEFAULT
 10
72.01741054343333
 20
269.9024069999116
 30
0.0
  0
VERTEX
  5
3E8
  8
DEFAULT
 10
72.0174105434333
 20
274.9024069999116
 30
0.0
  0
VERTEX
  5
3E9
  8
DEFAULT
 10
75.01741054343336
 20
274.9024069999116
 30
0.0
  0
VERTEX
  5
3EA
  8
DEFAULT
 10
75.01741054343336
 20
280.9024069999116
 30
0.0
  0
VERTEX
  5
3EB
  8
DEFAULT
 10
72.01740978049392
 20
280.9024069999116
 30
0.0
  0
VERTEX
  5
3EC
  8
DEFAULT
 10
72.01740978049392
 20
277.9024069999116
 30
0.0
  0
VERTEX
  5
3ED
  8
DEFAULT
 10
69.01740978049392
 20
277.9024069999116
 30
0.0
  0
VERTEX
  5
3EE
  8
DEFAULT
 10
69.01740978049392
 20
280.9024069999116
 30
0.0
  0
VERTEX
  5
3EF
  8
DEFAULT
 10
63.01740982817764
 20
280.9024069999116
 30
0.0
  0
VERTEX
  5
3F0
  8
DEFAULT
 10
63.01740982817763
 20
279.9024069999116
 30
0.0
  0
VERTEX
  5
3F1
  8
DEFAULT
 10
60.01740958975905
 20
279.9024069999116
 30
0.0
  0
VERTEX
  5
3F2
  8
DEFAULT
 10
60.01740958975906
 20
280.9024069999116
 30
0.0
  0
VERTEX
  5
3F3
  8
DEFAULT
 10
54.01740978049396
 20
280.9024069999116
 30
0.0
 42
0.4142135623730915
  0
VERTEX
  5
3F4
  8
DEFAULT
 10
53.01740978049396
 20
279.9024069999116
 30
0.0
  0
VERTEX
  5
3F5
  8
DEFAULT
 10
53.01740978049394
 20
278.1689060894473
 30
0.0
 42
0.4698819168635637
  0
VERTEX
  5
3F6
  8
DEFAULT
 10
54.20259499393614
 20
277.1862024531854
 30
0.0
 42
-0.4698819168635622
  0
SEQEND
  5
3F7
  8
DEFAULT
  0
POLYLINE
  5
3F8
  8
DEFAULT
 66
     1
 10
0.0
 20
0.0
 30
0.0
 70
     1
  0
VERTEX
  5
3F9
  8
DEFAULT
 10
-0.7067193912301519
 20
264.9024069999116
 30
0.0
 42
-0.4698819168635594
  0
VERTEX
  5
3FA
  8
DEFAULT
 10
-15.52153455925765
 20
252.6186115466379
 30
0.0
 42
0.469881916863488
  0
VERTEX
  5
3FB
  8
DEFAULT
 10
-16.70671977269987
 20
251.635907910376
 30
0.0
  0
VERTEX
  5
3FC
  8
DEFAULT
 10
-16.70671977269985
 20
249.9024069999117
 30
0.0
 42
0.414213562373109
  0
VERTEX
  5
3FD
  8
DEFAULT
 10
-15.70671977269983
 20
248.9024069999117
 30
0.0
  0
VERTEX
  5
3FE
  8
DEFAULT
 10
-9.706719963434729
 20
248.9024069999117
 30
0.0
  0
VERTEX
  5
3FF
  8
DEFAULT
 10
-9.706719963434743
 20
249.9024069999116
 30
0.0
  0
VERTEX
  5
400
  8
DEFAULT
 10
-6.706719725016164
 20
249.9024069999116
 30
0.0
  0
VERTEX
  5
401
  8
DEFAULT
 10
-6.70671972501615
 20
248.9024069999117
 30
0.0
  0
VERTEX
  5
402
  8
DEFAULT
 10
-0.7067197726998771
 20
248.9024069999117
 30
0.0
  0
VERTEX
  5
403
  8
DEFAULT
 10
-0.7067197726998771
 20
251.9024069999116
 30
0.0
  0
VERTEX
  5
404
  8
DEFAULT
 10
2.293280227300123
 20
251.9024069999116
 30
0.0
  0
VERTEX
  5
405
  8
DEFAULT
 10
2.29328022730013
 20
248.9024069999117
 30
0.0
  0
VERTEX
  5
406
  8
DEFAULT
 10
5.293280990239566
 20
248.9024069999117
 30
0.0
  0
VERTEX
  5
407
  8
DEFAULT
 10
5.293280990239566
 20
254.9024069999116
 30
0.0
  0
VERTEX
  5
408
  8
DEFAULT
 10
2.293280990239502
 20
254.9024069999116
 30
0.0
  0
VERTEX
  5
409
  8
DEFAULT
 10
2.293280990239538
 20
259.9024069999116
 30
0.0
  0
VERTEX
  5
40A
  8
DEFAULT
 10
5.293280990239566
 20
259.9024069999116
 30
0.0
  0
VERTEX
  5
40B
  8
DEFAULT
 10
5.293280990239566
 20
269.9024069999116
 30
0.0
  0
VERTEX
  5
40C
  8
DEFAULT
 10
2.293280990239538
 20
269.9024069999116
 30
0.0
  0
VERTEX
  5
40D
  8
DEFAULT
 10
2.293280990239502
 20
274.9024069999116
 30
0.0
  0
VERTEX
  5
40E
  8
DEFAULT
 10
5.293280990239566
 20
274.9024069999116
 30
0.0
  0
VERTEX
  5
40F
  8
DEFAULT
 10
5.293280990239566
 20
280.9024069999116
 30
0.0
  0
VERTEX
  5
410
  8
DEFAULT
 10
2.29328022730013
 20
280.9024069999116
 30
0.0
  0
VERTEX
  5
411
  8
DEFAULT
 10
2.293280227300123
 20
277.9024069999116
 30
0.0
  0
VERTEX
  5
412
  8
DEFAULT
 10
-0.7067197726998771
 20
277.9024069999116
 30
0.0
  0
VERTEX
  5
413
  8
DEFAULT
 10
-0.7067197726998771
 20
280.9024069999116
 30
0.0
  0
VERTEX
  5
414
  8
DEFAULT
 10
-6.70671972501615
 20
280.9024069999116
 30
0.0
  0
VERTEX
  5
415
  8
DEFAULT
 10
-6.706719725016164
 20
279.9024069999116
 30
0.0
  0
VERTEX
  5
416
  8
DEFAULT
 10
-9.706719963434743
 20
279.9024069999116
 30
0.0
  0
VERTEX
  5
417
  8
DEFAULT
 10
-9.706719963434729
 20
280.9024069999116
 30
0.0
  0
VERTEX
  5
418
  8
DEFAULT
 10
-15.70671977269983
 20
280.9024069999116
 30
0.0
 42
0.414213562373123
  0
VERTEX
  5
419
  8
DEFAULT
 10
-16.70671977269981
 20
279.9024069999116
 30
0.0
  0
VERTEX
  5
41A
  8
DEFAULT
 10
-16.70671977269985
 20
278.1689060894473
 30
0.0
 42
0.4698819168635236
  0
VERTEX
  5
41B
  8
DEFAULT
 10
-15.52153455925766
 20
277.1862024531854
 30
0.0
 42
-0.4698819168635602
  0
SEQEND
  5
41C
  8
DEFAULT
  0
POLYLINE
  5
41D
  8
DEFAULT
 66
     1
 10
0.0
 20
0.0
 30
0.0
 70
     1
  0
VERTEX
  5
41E
  8
DEFAULT
 10
-23.7001043053655
 20
264.9024069999116
 30
0.0
 42
-0.4698819168635592
  0
VERTEX
  5
41F
  8
DEFAULT
 10
-38.514919473393
 20
252.6186115466379
 30
0.0
 42
0.4698819168635119
  0
VERTEX
  5
420
  8
DEFAULT
 10
-39.70010468683522
 20
251.635907910376
 30
0.0
  0
VERTEX
  5
421
  8
DEFAULT
 10
-39.7001046868352
 20
249.9024069999117
 30
0.0
 42
0.4142135623731039
  0
VERTEX
  5
422
  8
DEFAULT
 10
-38.70010468683518
 20
248.9024069999117
 30
0.0
  0
VERTEX
  5
423
  8
DEFAULT
 10
-32.70010487757008
 20
248.9024069999117
 30
0.0
  0
VERTEX
  5
424
  8
DEFAULT
 10
-32.70010487757009
 20
249.9024069999116
 30
0.0
  0
VERTEX
  5
425
  8
DEFAULT
 10
-29.70010463915151
 20
249.9024069999116
 30
0.0
  0
VERTEX
  5
426
  8
DEFAULT
 10
-29.7001046391515
 20
248.9024069999117
 30
0.0
  0
VERTEX
  5
427
  8
DEFAULT
 10
-23.70010468683522
 20
248.9024069999117
 30
0.0
  0
VERTEX
  5
428
  8
DEFAULT
 10
-23.70010468683522
 20
251.9024069999116
 30
0.0
  0
VERTEX
  5
429
  8
DEFAULT
 10
-20.70010468683522
 20
251.9024069999116
 30
0.0
  0
VERTEX
  5
42A
  8
DEFAULT
 10
-20.70010468683522
 20
248.9024069999117
 30
0.0
  0
VERTEX
  5
42B
  8
DEFAULT
 10
-17.70010392389578
 20
248.9024069999117
 30
0.0
  0
VERTEX
  5
42C
  8
DEFAULT
 10
-17.70010392389578
 20
254.9024069999116
 30
0.0
  0
VERTEX
  5
42D
  8
DEFAULT
 10
-20.70010392389585
 20
254.9024069999116
 30
0.0
  0
VERTEX
  5
42E
  8
DEFAULT
 10
-20.70010392389581
 20
259.9024069999116
 30
0.0
  0
VERTEX
  5
42F
  8
DEFAULT
 10
-17.70010392389578
 20
259.9024069999116
 30
0.0
  0
VERTEX
  5
430
  8
DEFAULT
 10
-17.70010392389578
 20
269.9024069999116
 30
0.0
  0
VERTEX
  5
431
  8
DEFAULT
 10
-20.70010392389581
 20
269.9024069999116
 30
0.0
  0
VERTEX
  5
432
  8
DEFAULT
 10
-20.70010392389585
 20
274.9024069999116
 30
0.0
  0
VERTEX
  5
433
  8
DEFAULT
 10
-17.70010392389578
 20
274.9024069999116
 30
0.0
  0
VERTEX
  5
434
  8
DEFAULT
 10
-17.70010392389578
 20
280.9024069999116
 30
0.0
  0
VERTEX
  5
435
  8
DEFAULT
 10
-20.70010468683522
 20
280.9024069999116
 30
0.0
  0
VERTEX
  5
436
  8
DEFAULT
 10
-20.70010468683522
 20
277.9024069999116
 30
0.0
  0
VERTEX
  5
437
  8
DEFAULT
 10
-23.70010468683522
 20
277.9024069999116
 30
0.0
  0
VERTEX
  5
438
  8
DEFAULT
 10
-23.70010468683522
 20
280.9024069999116
 30
0.0
  0
VERTEX
  5
439
  8
DEFAULT
 10
-29.7001046391515
 20
280.9024069999116
 30
0.0
  0
VERTEX
  5
43A
  8
DEFAULT
 10
-29.70010463915151
 20
279.9024069999116
 30
0.0
  0
VERTEX
  5
43B
  8
DEFAULT
 10
-32.70010487757009
 20
279.9024069999116
 30
0.0
  0
VERTEX
  5
43C
  8
DEFAULT
 10
-32.70010487757008
 20
280.9024069999116
 30
0.0
  0
VERTEX
  5
43D
  8
DEFAULT
 10
-38.70010468683518
 20
280.9024069999116
 30
0.0
 42
0.4142135623730963
  0
VERTEX
  5
43E
  8
DEFAULT
 10
-39.70010468683519
 20
279.9024069999116
 30
0.0
  0
VERTEX
  5
43F
  8
DEFAULT
 10
-39.7001046868352
 20
278.1689060894473
 30
0.0
 42
0.4698819168635294
  0
VERTEX
  5
440
  8
DEFAULT
 10
-38.51491947339301
 20
277.1862024531854
 30
0.0
 42
-0.4698819168635602
  0
SEQEND
  5
441
  8
DEFAULT
  0
POLYLINE
  5
442
  8
DEFAULT
 66
     1
 10
0.0
 20
0.0
 30
0.0
 70
     1
  0
VERTEX
  5
443
  8
DEFAULT
 10
-46.69348921950084
 20
264.9024069999116
 30
0.0
 42
-0.4698819168635593
  0
VERTEX
  5
444
  8
DEFAULT
 10
-61.50830438752834
 20
252.6186115466379
 30
0.0
 42
0.46988191686349
  0
VERTEX
  5
445
  8
DEFAULT
 10
-62.69348960097057
 20
251.635907910376
 30
0.0
  0
VERTEX
  5
446
  8
DEFAULT
 10
-62.69348960097054
 20
249.9024069999117
 30
0.0
 42
0.4142135623731177
  0
VERTEX
  5
447
  8
DEFAULT
 10
-61.69348960097052
 20
248.9024069999117
 30
0.0
  0
VERTEX
  5
448
  8
DEFAULT
 10
-55.69348979170542
 20
248.9024069999117
 30
0.0
  0
VERTEX
  5
449
  8
DEFAULT
 10
-55.69348979170543
 20
249.9024069999116
 30
0.0
  0
VERTEX
  5
44A
  8
DEFAULT
 10
-52.69348955328685
 20
249.9024069999116
 30
0.0
  0
VERTEX
  5
44B
  8
DEFAULT
 10
-52.69348955328684
 20
248.9024069999117
 30
0.0
  0
VERTEX
  5
44C
  8
DEFAULT
 10
-46.69348960097057
 20
248.9024069999117
 30
0.0
  0
VERTEX
  5
44D
  8
DEFAULT
 10
-46.69348960097057
 20
251.9024069999116
 30
0.0
  0
VERTEX
  5
44E
  8
DEFAULT
 10
-43.69348960097057
 20
251.9024069999116
 30
0.0
  0
VERTEX
  5
44F
  8
DEFAULT
 10
-43.69348960097056
 20
248.9024069999117
 30
0.0
  0
VERTEX
  5
450
  8
DEFAULT
 10
-40.69348883803112
 20
248.9024069999117
 30
0.0
  0
VERTEX
  5
451
  8
DEFAULT
 10
-40.69348883803112
 20
254.9024069999116
 30
0.0
  0
VERTEX
  5
452
  8
DEFAULT
 10
-43.69348883803119
 20
254.9024069999116
 30
0.0
  0
VERTEX
  5
453
  8
DEFAULT
 10
-43.69348883803115
 20
259.9024069999116
 30
0.0
  0
VERTEX
  5
454
  8
DEFAULT
 10
-40.69348883803112
 20
259.9024069999116
 30
0.0
  0
VERTEX
  5
455
  8
DEFAULT
 10
-40.69348883803112
 20
269.9024069999116
 30
0.0
  0
VERTEX
  5
456
  8
DEFAULT
 10
-43.69348883803115
 20
269.9024069999116
 30
0.0
  0
VERTEX
  5
457
  8
DEFAULT
 10
-43.69348883803119
 20
274.9024069999116
 30
0.0
  0
VERTEX
  5
458
  8
DEFAULT
 10
-40.69348883803112
 20
274.9024069999116
 30
0.0
  0
VERTEX
  5
459
  8
DEFAULT
 10
-40.69348883803112
 20
280.9024069999116
 30
0.0
  0
VERTEX
  5
45A
  8
DEFAULT
 10
-43.69348960097056
 20
280.9024069999116
 30
0.0
  0
VERTEX
  5
45B
  8
DEFAULT
 10
-43.69348960097057
 20
277.9024069999116
 30
0.0
  0
VERTEX
  5
45C
  8
DEFAULT
 10
-46.69348960097057
 20
277.9024069999116
 30
0.0
  0
VERTEX
  5
45D
  8
DEFAULT
 10
-46.69348960097057
 20
280.9024069999116
 30
0.0
  0
VERTEX
  5
45E
  8
DEFAULT
 10
-52.69348955328684
 20
280.9024069999116
 30
0.0
  0
VERTEX
  5
45F
  8
DEFAULT
 10
-52.69348955328685
 20
279.9024069999116
 30
0.0
  0
VERTEX
  5
460
  8
DEFAULT
 10
-55.69348979170543
 20
279.9024069999116
 30
0.0
  0
VERTEX
  5
461
  8
DEFAULT
 10
-55.69348979170542
 20
280.9024069999116
 30
0.0
  0
VERTEX
  5
462
  8
DEFAULT
 10
-61.69348960097052
 20
280.9024069999116
 30
0.0
 42
0.4142135623731258
  0
VERTEX
  5
463
  8
DEFAULT
 10
-62.69348960097051
 20
279.9024069999116
 30
0.0
  0
VERTEX
  5
464
  8
DEFAULT
 10
-62.69348960097054
 20
278.1689060894473
 30
0.0
 42
0.4698819168635328
  0
VERTEX
  5
465
  8
DEFAULT
 10
-61.50830438752836
 20
277.1862024531854
 30
0.0
 42
-0.4698819168635598
  0
SEQEND
  5
466
  8
DEFAULT
  0
POLYLINE
  5
467
  8
DEFAULT
 66
     1
 10
0.0
 20
0.0
 30
0.0
 70
     1
  0
VERTEX
  5
468
  8
DEFAULT
 10
-17.00000000000001
 20
232.4326704065382
 30
0.0
  0
VERTEX
  5
469
  8
DEFAULT
 10
-25.0
 20
232.4326704065382
 30
0.0
 42
-0.6250000000000924
  0
VERTEX
  5
46A
  8
DEFAULT
 10
-26.00000000000001
 20
233.4326704065382
 30
0.0
 42
0.6249999999999961
  0
VERTEX
  5
46B
  8
DEFAULT
 10
-26.99999999999999
 20
234.4326704065382
 30
0.0
  0
VERTEX
  5
46C
  8
DEFAULT
 10
-40.0
 20
234.4326704065382
 30
0.0
 42
0.6249999999999818
  0
VERTEX
  5
46D
  8
DEFAULT
 10
-40.99999999999997
 20
233.4326704065382
 30
0.0
 42
-0.6250000000001602
  0
VERTEX
  5
46E
  8
DEFAULT
 10
-42.0
 20
232.4326704065382
 30
0.0
  0
VERTEX
  5
46F
  8
DEFAULT
 10
-50.00000000000002
 20
232.4326704065382
 30
0.0
 42
-0.6249999999999507
  0
VERTEX
  5
470
  8
DEFAULT
 10
-51.00000000000002
 20
233.4326704065382
 30
0.0
 42
0.6249999999999704
  0
VERTEX
  5
471
  8
DEFAULT
 10
-52.00000000000002
 20
234.4326704065382
 30
0.0
  0
VERTEX
  5
472
  8
DEFAULT
 10
-62.00000000000003
 20
234.4326704065382
 30
0.0
 42
0.6249999999999457
  0
VERTEX
  5
473
  8
DEFAULT
 10
-63.00000000000001
 20
233.4326704065382
 30
0.0
  0
VERTEX
  5
474
  8
DEFAULT
 10
-62.99999999999998
 20
224.4326704065382
 30
0.0
 42
0.6250000000000437
  0
VERTEX
  5
475
  8
DEFAULT
 10
-62.00000000000001
 20
223.4326704065382
 30
0.0
  0
VERTEX
  5
476
  8
DEFAULT
 10
-61.0
 20
223.4326704065382
 30
0.0
 42
0.6250000000000825
  0
VERTEX
  5
477
  8
DEFAULT
 10
-59.99999999999998
 20
224.4326704065382
 30
0.0
  0
VERTEX
  5
478
  8
DEFAULT
 10
-60.0
 20
230.4326704065382
 30
0.0
  0
VERTEX
  5
479
  8
DEFAULT
 10
-57.0
 20
230.4326704065382
 30
0.0
  0
VERTEX
  5
47A
  8
DEFAULT
 10
-57.0
 20
227.4326704065382
 30
0.0
  0
VERTEX
  5
47B
  8
DEFAULT
 10
-36.0
 20
227.4326704065382
 30
0.0
  0
VERTEX
  5
47C
  8
DEFAULT
 10
-36.0
 20
230.4326704065382
 30
0.0
  0
VERTEX
  5
47D
  8
DEFAULT
 10
-33.0
 20
230.4326704065382
 30
0.0
  0
VERTEX
  5
47E
  8
DEFAULT
 10
-33.0
 20
227.4326704065382
 30
0.0
  0
VERTEX
  5
47F
  8
DEFAULT
 10
-11.4
 20
227.4326704065382
 30
0.0
  0
VERTEX
  5
480
  8
DEFAULT
 10
-11.4
 20
230.4326704065382
 30
0.0
  0
VERTEX
  5
481
  8
DEFAULT
 10
-8.399999618530273
 20
230.4326704065382
 30
0.0
  0
VERTEX
  5
482
  8
DEFAULT
 10
-8.399999618530272
 20
224.4326704065382
 30
0.0
 42
0.6250000000001141
  0
VERTEX
  5
483
  8
DEFAULT
 10
-7.399999618530274
 20
223.4326704065382
 30
0.0
  0
VERTEX
  5
484
  8
DEFAULT
 10
-6.399999618530276
 20
223.4326704065382
 30
0.0
 42
0.6249999999999787
  0
VERTEX
  5
485
  8
DEFAULT
 10
-5.399999618530247
 20
224.4326704065382
 30
0.0
  0
VERTEX
  5
486
  8
DEFAULT
 10
-5.399999618530277
 20
233.4326704065382
 30
0.0
 42
0.6250000000000495
  0
VERTEX
  5
487
  8
DEFAULT
 10
-6.399999618530278
 20
234.4326704065382
 30
0.0
  0
VERTEX
  5
488
  8
DEFAULT
 10
-14.99999999999999
 20
234.4326704065382
 30
0.0
 42
0.6249999999999515
  0
VERTEX
  5
489
  8
DEFAULT
 10
-15.99999999999997
 20
233.4326704065382
 30
0.0
 42
-0.6250000000001185
  0
SEQEND
  5
48A
  8
DEFAULT
  0
POLYLINE
  5
48B
  8
DEFAULT
 66
     1
 10
0.0
 20
0.0
 30
0.0
 70
     1
  0
VERTEX
  5
48C
  8
DEFAULT
 10
41.05052354363315
 20
233.4326704065382
 30
0.0
 42
-0.6249999999999576
  0
VERTEX
  5
48D
  8
DEFAULT
 10
40.05052354363315
 20
232.4326704065382
 30
0.0
  0
VERTEX
  5
48E
  8
DEFAULT
 10
32.05052354363315
 20
232.4326704065382
 30
0.0
 42
-0.6249999999999368
  0
VERTEX
  5
48F
  8
DEFAULT
 10
31.05052354363315
 20
233.4326704065382
 30
0.0
 42
0.6250000000000371
  0
VERTEX
  5
490
  8
DEFAULT
 10
30.05052354363314
 20
234.4326704065382
 30
0.0
  0
VERTEX
  5
491
  8
DEFAULT
 10
17.05052354363318
 20
234.4326704065382
 30
0.0
 42
0.6250000000000142
  0
VERTEX
  5
492
  8
DEFAULT
 10
16.05052354363309
 20
233.4326704065382
 30
0.0
 42
-0.6249999999999569
  0
VERTEX
  5
493
  8
DEFAULT
 10
15.05052354363315
 20
232.4326704065382
 30
0.0
  0
VERTEX
  5
494
  8
DEFAULT
 10
7.050523543633162
 20
232.4326704065382
 30
0.0
 42
-0.6249999999999418
  0
VERTEX
  5
495
  8
DEFAULT
 10
6.0505235436332
 20
233.4326704065382
 30
0.0
 42
0.6249999999999533
  0
VERTEX
  5
496
  8
DEFAULT
 10
5.050523543633123
 20
234.4326704065382
 30
0.0
  0
VERTEX
  5
497
  8
DEFAULT
 10
-1.949476456366881
 20
234.4326704065382
 30
0.0
 42
0.6249999999999976
  0
VERTEX
  5
498
  8
DEFAULT
 10
-2.949476456366813
 20
233.4326704065382
 30
0.0
  0
VERTEX
  5
499
  8
DEFAULT
 10
-2.949476456366853
 20
228.4326704065382
 30
0.0
  0
VERTEX
  5
49A
  8
DEFAULT
 10
0.0505235436331475
 20
228.4326704065382
 30
0.0
  0
VERTEX
  5
49B
  8
DEFAULT
 10
0.0505235436331475
 20
225.4326704065382
 30
0.0
  0
VERTEX
  5
49C
  8
DEFAULT
 10
21.05052354363314
 20
225.4326704065382
 30
0.0
  0
VERTEX
  5
49D
  8
DEFAULT
 10
21.05052354363315
 20
228.4326704065382
 30
0.0
  0
VERTEX
  5
49E
  8
DEFAULT
 10
24.05052354363315
 20
228.4326704065382
 30
0.0
  0
VERTEX
  5
49F
  8
DEFAULT
 10
24.05052354363314
 20
225.4326704065382
 30
0.0
  0
VERTEX
  5
4A0
  8
DEFAULT
 10
45.65052354363315
 20
225.4326704065382
 30
0.0
  0
VERTEX
  5
4A1
  8
DEFAULT
 10
45.65052354363315
 20
228.4326704065382
 30
0.0
  0
VERTEX
  5
4A2
  8
DEFAULT
 10
48.65052354363315
 20
228.4326704065382
 30
0.0
  0
VERTEX
  5
4A3
  8
DEFAULT
 10
48.65052354363315
 20
233.4326704065382
 30
0.0
 42
0.6250000000000193
  0
VERTEX
  5
4A4
  8
DEFAULT
 10
47.65052354363313
 20
234.4326704065382
 30
0.0
  0
VERTEX
  5
4A5
  8
DEFAULT
 10
42.05052354363315
 20
234.4326704065382
 30
0.0
 42
0.6249999999999302
  0
SEQEND
  5
4A6
  8
DEFAULT
  0
POLYLINE
  5
4A7
  8
DEFAULT
 66
     1
 10
0.0
 20
0.0
 30
0.0
 70
     1
  0
VERTEX
  5
4A8
  8
DEFAULT
 10
41.05052354363315
 20
245.1955702389738
 30
0.0
 42
-0.6249999999999458
  0
VERTEX
  5
4A9
  8
DEFAULT
 10
40.05052354363313
 20
244.1955702389738
 30
0.0
  0
VERTEX
  5
4AA
  8
DEFAULT
 10
32.05052354363315
 20
244.1955702389738
 30
0.0
 42
-0.6249999999998771
  0
VERTEX
  5
4AB
  8
DEFAULT
 10
31.05052354363312
 20
245.1955702389738
 30
0.0
 42
0.6250000000000574
  0
VERTEX
  5
4AC
  8
DEFAULT
 10
30.05052354363313
 20
246.1955702389739
 30
0.0
  0
VERTEX
  5
4AD
  8
DEFAULT
 10
17.05052354363318
 20
246.1955702389738
 30
0.0
 42
0.6249999999999604
  0
VERTEX
  5
4AE
  8
DEFAULT
 10
16.05052354363318
 20
245.1955702389738
 30
0.0
 42
-0.6249999999998744
  0
VERTEX
  5
4AF
  8
DEFAULT
 10
15.05052354363315
 20
244.1955702389738
 30
0.0
  0
VERTEX
  5
4B0
  8
DEFAULT
 10
7.050523543633162
 20
244.1955702389738
 30
0.0
 42
-0.6249999999998971
  0
VERTEX
  5
4B1
  8
DEFAULT
 10
6.050523543633172
 20
245.1955702389738
 30
0.0
 42
0.6249999999999756
  0
VERTEX
  5
4B2
  8
DEFAULT
 10
5.050523543633129
 20
246.1955702389738
 30
0.0
  0
VERTEX
  5
4B3
  8
DEFAULT
 10
-1.949476456366881
 20
246.1955702389738
 30
0.0
 42
0.624999999999977
  0
VERTEX
  5
4B4
  8
DEFAULT
 10
-2.949476456366873
 20
245.1955702389738
 30
0.0
  0
VERTEX
  5
4B5
  8
DEFAULT
 10
-2.949476456366853
 20
240.1955702389738
 30
0.0
  0
VERTEX
  5
4B6
  8
DEFAULT
 10
0.0505235436331475
 20
240.1955702389738
 30
0.0
  0
VERTEX
  5
4B7
  8
DEFAULT
 10
0.0505235436331475
 20
237.1955702389738
 30
0.0
  0
VERTEX
  5
4B8
  8
DEFAULT
 10
21.05052354363314
 20
237.1955702389738
 30
0.0
  0
VERTEX
  5
4B9
  8
DEFAULT
 10
21.05052354363315
 20
240.1955702389738
 30
0.0
  0
VERTEX
  5
4BA
  8
DEFAULT
 10
24.05052354363315
 20
240.1955702389738
 30
0.0
  0
VERTEX
  5
4BB
  8
DEFAULT
 10
24.05052354363314
 20
237.1955702389738
 30
0.0
  0
VERTEX
  5
4BC
  8
DEFAULT
 10
45.65052354363315
 20
237.1955702389738
 30
0.0
  0
VERTEX
  5
4BD
  8
DEFAULT
 10
45.65052354363315
 20
240.1955702389738
 30
0.0
  0
VERTEX
  5
4BE
  8
DEFAULT
 10
48.65052354363315
 20
240.1955702389738
 30
0.0
  0
VERTEX
  5
4BF
  8
DEFAULT
 10
48.65052354363315
 20
245.1955702389738
 30
0.0
 42
0.6250000000000197
  0
VERTEX
  5
4C0
  8
DEFAULT
 10
47.65052354363313
 20
246.1955702389739
 30
0.0
  0
VERTEX
  5
4C1
  8
DEFAULT
 10
42.05052354363315
 20
246.1955702389738
 30
0.0
 42
0.6249999999999324
  0
SEQEND
  5
4C2
  8
DEFAULT
  0
POLYLINE
  5
4C3
  8
DEFAULT
 66
     1
 10
0.0
 20
0.0
 30
0.0
 70
     1
  0
VERTEX
  5
4C4
  8
DEFAULT
 10
-17.00000000000001
 20
244.1955702389738
 30
0.0
  0
VERTEX
  5
4C5
  8
DEFAULT
 10
-25.0
 20
244.1955702389738
 30
0.0
 42
-0.6250000000001028
  0
VERTEX
  5
4C6
  8
DEFAULT
 10
-26.00000000000002
 20
245.1955702389739
 30
0.0
 42
0.6249999999999786
  0
VERTEX
  5
4C7
  8
DEFAULT
 10
-26.99999999999998
 20
246.1955702389738
 30
0.0
  0
VERTEX
  5
4C8
  8
DEFAULT
 10
-40.0
 20
246.1955702389738
 30
0.0
 42
0.6249999999999818
  0
VERTEX
  5
4C9
  8
DEFAULT
 10
-40.99999999999997
 20
245.1955702389738
 30
0.0
 42
-0.6250000000001661
  0
VERTEX
  5
4CA
  8
DEFAULT
 10
-42.0
 20
244.1955702389738
 30
0.0
  0
VERTEX
  5
4CB
  8
DEFAULT
 10
-50.00000000000002
 20
244.1955702389738
 30
0.0
 42
-0.6249999999999597
  0
VERTEX
  5
4CC
  8
DEFAULT
 10
-51.0
 20
245.1955702389739
 30
0.0
 42
0.6249999999999781
  0
VERTEX
  5
4CD
  8
DEFAULT
 10
-52.00000000000003
 20
246.1955702389738
 30
0.0
  0
VERTEX
  5
4CE
  8
DEFAULT
 10
-62.00000000000003
 20
246.1955702389738
 30
0.0
 42
0.6249999999999782
  0
VERTEX
  5
4CF
  8
DEFAULT
 10
-63.00000000000001
 20
245.1955702389738
 30
0.0
  0
VERTEX
  5
4D0
  8
DEFAULT
 10
-62.99999999999998
 20
236.1955702389738
 30
0.0
 42
0.6250000000000941
  0
VERTEX
  5
4D1
  8
DEFAULT
 10
-61.99999999999999
 20
235.1955702389738
 30
0.0
  0
VERTEX
  5
4D2
  8
DEFAULT
 10
-61.0
 20
235.1955702389738
 30
0.0
 42
0.6250000000000735
  0
VERTEX
  5
4D3
  8
DEFAULT
 10
-59.99999999999996
 20
236.1955702389739
 30
0.0
  0
VERTEX
  5
4D4
  8
DEFAULT
 10
-60.0
 20
242.1955702389738
 30
0.0
  0
VERTEX
  5
4D5
  8
DEFAULT
 10
-57.0
 20
242.1955702389738
 30
0.0
  0
VERTEX
  5
4D6
  8
DEFAULT
 10
-57.0
 20
239.1955702389738
 30
0.0
  0
VERTEX
  5
4D7
  8
DEFAULT
 10
-36.0
 20
239.1955702389738
 30
0.0
  0
VERTEX
  5
4D8
  8
DEFAULT
 10
-36.0
 20
242.1955702389738
 30
0.0
  0
VERTEX
  5
4D9
  8
DEFAULT
 10
-33.0
 20
242.1955702389738
 30
0.0
  0
VERTEX
  5
4DA
  8
DEFAULT
 10
-33.0
 20
239.1955702389738
 30
0.0
  0
VERTEX
  5
4DB
  8
DEFAULT
 10
-11.4
 20
239.1955702389738
 30
0.0
  0
VERTEX
  5
4DC
  8
DEFAULT
 10
-11.4
 20
242.1955702389738
 30
0.0
  0
VERTEX
  5
4DD
  8
DEFAULT
 10
-8.399999618530273
 20
242.1955702389738
 30
0.0
  0
VERTEX
  5
4DE
  8
DEFAULT
 10
-8.399999618530272
 20
236.1955702389738
 30
0.0
 42
0.6250000000000916
  0
VERTEX
  5
4DF
  8
DEFAULT
 10
-7.399999618530274
 20
235.1955702389738
 30
0.0
  0
VERTEX
  5
4E0
  8
DEFAULT
 10
-6.399999618530276
 20
235.1955702389738
 30
0.0
 42
0.6249999999999937
  0
VERTEX
  5
4E1
  8
DEFAULT
 10
-5.399999618530273
 20
236.1955702389738
 30
0.0
  0
VERTEX
  5
4E2
  8
DEFAULT
 10
-5.399999618530277
 20
245.1955702389738
 30
0.0
 42
0.6250000000000253
  0
VERTEX
  5
4E3
  8
DEFAULT
 10
-6.399999618530286
 20
246.1955702389739
 30
0.0
  0
VERTEX
  5
4E4
  8
DEFAULT
 10
-14.99999999999999
 20
246.1955702389738
 30
0.0
 42
0.624999999999904
  0
VERTEX
  5
4E5
  8
DEFAULT
 10
-16.0
 20
245.1955702389738
 30
0.0
 42
-0.6250000000000739
  0
SEQEND
  5
4E6
  8
DEFAULT
  0
POLYLINE
  5
4E7
  8
DEFAULT
 66
     1
 10
0.0
 20
0.0
 30
0.0
 70
     1
  0
VERTEX
  5
4E8
  8
DEFAULT
 10
-17.00000000000001
 20
220.9838376207309
 30
0.0
  0
VERTEX
  5
4E9
  8
DEFAULT
 10
-25.0
 20
220.9838376207309
 30
0.0
 42
-0.6250000000001028
  0
VERTEX
  5
4EA
  8
DEFAULT
 10
-26.00000000000007
 20
221.983837620731
 30
0.0
 42
0.6250000000000153
  0
VERTEX
  5
4EB
  8
DEFAULT
 10
-27.0
 20
222.983837620731
 30
0.0
  0
VERTEX
  5
4EC
  8
DEFAULT
 10
-40.0
 20
222.9838376207309
 30
0.0
 42
0.6250000000000108
  0
VERTEX
  5
4ED
  8
DEFAULT
 10
-40.99999999999997
 20
221.9838376207309
 30
0.0
 42
-0.6250000000001356
  0
VERTEX
  5
4EE
  8
DEFAULT
 10
-41.99999999999999
 20
220.983837620731
 30
0.0
  0
VERTEX
  5
4EF
  8
DEFAULT
 10
-50.00000000000002
 20
220.9838376207309
 30
0.0
 42
-0.6249999999999662
  0
VERTEX
  5
4F0
  8
DEFAULT
 10
-50.99999999999998
 20
221.9838376207309
 30
0.0
 42
0.624999999999973
  0
VERTEX
  5
4F1
  8
DEFAULT
 10
-52.00000000000001
 20
222.9838376207309
 30
0.0
  0
VERTEX
  5
4F2
  8
DEFAULT
 10
-62.00000000000003
 20
222.9838376207309
 30
0.0
 42
0.6249999999999525
  0
VERTEX
  5
4F3
  8
DEFAULT
 10
-63.00000000000001
 20
221.9838376207309
 30
0.0
  0
VERTEX
  5
4F4
  8
DEFAULT
 10
-62.99999999999998
 20
212.9838376207309
 30
0.0
 42
0.6250000000000037
  0
VERTEX
  5
4F5
  8
DEFAULT
 10
-61.99999999999999
 20
211.9838376207309
 30
0.0
  0
VERTEX
  5
4F6
  8
DEFAULT
 10
-61.0
 20
211.9838376207309
 30
0.0
 42
0.6250000000000343
  0
VERTEX
  5
4F7
  8
DEFAULT
 10
-60.0
 20
212.9838376207309
 30
0.0
  0
VERTEX
  5
4F8
  8
DEFAULT
 10
-60.0
 20
218.9838376207309
 30
0.0
  0
VERTEX
  5
4F9
  8
DEFAULT
 10
-57.0
 20
218.9838376207309
 30
0.0
  0
VERTEX
  5
4FA
  8
DEFAULT
 10
-57.0
 20
215.9838376207309
 30
0.0
  0
VERTEX
  5
4FB
  8
DEFAULT
 10
-36.0
 20
215.9838376207309
 30
0.0
  0
VERTEX
  5
4FC
  8
DEFAULT
 10
-36.0
 20
218.9838376207309
 30
0.0
  0
VERTEX
  5
4FD
  8
DEFAULT
 10
-33.0
 20
218.9838376207309
 30
0.0
  0
VERTEX
  5
4FE
  8
DEFAULT
 10
-33.0
 20
215.9838376207309
 30
0.0
  0
VERTEX
  5
4FF
  8
DEFAULT
 10
-11.4
 20
215.9838376207309
 30
0.0
  0
VERTEX
  5
500
  8
DEFAULT
 10
-11.4
 20
218.9838376207309
 30
0.0
  0
VERTEX
  5
501
  8
DEFAULT
 10
-8.399999618530273
 20
218.9838376207309
 30
0.0
  0
VERTEX
  5
502
  8
DEFAULT
 10
-8.399999618530272
 20
212.9838376207309
 30
0.0
 42
0.6250000000000602
  0
VERTEX
  5
503
  8
DEFAULT
 10
-7.399999618530277
 20
211.9838376207309
 30
0.0
  0
VERTEX
  5
504
  8
DEFAULT
 10
-6.399999618530276
 20
211.9838376207309
 30
0.0
 42
0.6249999999999937
  0
VERTEX
  5
505
  8
DEFAULT
 10
-5.399999618530273
 20
212.9838376207309
 30
0.0
  0
VERTEX
  5
506
  8
DEFAULT
 10
-5.399999618530277
 20
221.9838376207309
 30
0.0
 42
0.6249999999999926
  0
VERTEX
  5
507
  8
DEFAULT
 10
-6.399999618530274
 20
222.9838376207309
 30
0.0
  0
VERTEX
  5
508
  8
DEFAULT
 10
-14.99999999999999
 20
222.9838376207309
 30
0.0
 42
0.6249999999998904
  0
VERTEX
  5
509
  8
DEFAULT
 10
-16.00000000000002
 20
221.9838376207309
 30
0.0
 42
-0.6250000000001347
  0
SEQEND
  5
50A
  8
DEFAULT
  0
POLYLINE
  5
50B
  8
DEFAULT
 66
     1
 10
0.0
 20
0.0
 30
0.0
 70
     1
  0
VERTEX
  5
50C
  8
DEFAULT
 10
41.05052354363315
 20
221.9838376207309
 30
0.0
 42
-0.6249999999999315
  0
VERTEX
  5
50D
  8
DEFAULT
 10
40.05052354363316
 20
220.983837620731
 30
0.0
  0
VERTEX
  5
50E
  8
DEFAULT
 10
32.05052354363315
 20
220.9838376207309
 30
0.0
 42
-0.6249999999999185
  0
VERTEX
  5
50F
  8
DEFAULT
 10
31.05052354363316
 20
221.9838376207309
 30
0.0
 42
0.6250000000000304
  0
VERTEX
  5
510
  8
DEFAULT
 10
30.05052354363314
 20
222.983837620731
 30
0.0
  0
VERTEX
  5
511
  8
DEFAULT
 10
17.05052354363318
 20
222.9838376207309
 30
0.0
 42
0.6250000000000128
  0
VERTEX
  5
512
  8
DEFAULT
 10
16.0505235436332
 20
221.983837620731
 30
0.0
 42
-0.6249999999999455
  0
VERTEX
  5
513
  8
DEFAULT
 10
15.05052354363314
 20
220.9838376207309
 30
0.0
  0
VERTEX
  5
514
  8
DEFAULT
 10
7.050523543633162
 20
220.9838376207309
 30
0.0
 42
-0.6249999999999682
  0
VERTEX
  5
515
  8
DEFAULT
 10
6.050523543633185
 20
221.9838376207309
 30
0.0
 42
0.6249999999999717
  0
VERTEX
  5
516
  8
DEFAULT
 10
5.050523543633125
 20
222.9838376207309
 30
0.0
  0
VERTEX
  5
517
  8
DEFAULT
 10
-1.949476456366881
 20
222.9838376207309
 30
0.0
 42
0.6249999999999715
  0
VERTEX
  5
518
  8
DEFAULT
 10
-2.949476456366838
 20
221.9838376207309
 30
0.0
  0
VERTEX
  5
519
  8
DEFAULT
 10
-2.949476456366853
 20
216.9838376207309
 30
0.0
  0
VERTEX
  5
51A
  8
DEFAULT
 10
0.0505235436331475
 20
216.9838376207309
 30
0.0
  0
VERTEX
  5
51B
  8
DEFAULT
 10
0.0505235436331475
 20
213.9838376207309
 30
0.0
  0
VERTEX
  5
51C
  8
DEFAULT
 10
21.05052354363314
 20
213.9838376207309
 30
0.0
  0
VERTEX
  5
51D
  8
DEFAULT
 10
21.05052354363315
 20
216.9838376207309
 30
0.0
  0
VERTEX
  5
51E
  8
DEFAULT
 10
24.05052354363315
 20
216.9838376207309
 30
0.0
  0
VERTEX
  5
51F
  8
DEFAULT
 10
24.05052354363314
 20
213.9838376207309
 30
0.0
  0
VERTEX
  5
520
  8
DEFAULT
 10
45.65052354363315
 20
213.9838376207309
 30
0.0
  0
VERTEX
  5
521
  8
DEFAULT
 10
45.65052354363315
 20
216.9838376207309
 30
0.0
  0
VERTEX
  5
522
  8
DEFAULT
 10
48.65052354363315
 20
216.9838376207309
 30
0.0
  0
VERTEX
  5
523
  8
DEFAULT
 10
48.65052354363315
 20
221.9838376207309
 30
0.0
 42
0.6250000000000114
  0
VERTEX
  5
524
  8
DEFAULT
 10
47.65052354363313
 20
222.983837620731
 30
0.0
  0
VERTEX
  5
525
  8
DEFAULT
 10
42.05052354363315
 20
222.9838376207309
 30
0.0
 42
0.6249999999999302
  0
SEQEND
  5
526
  8
DEFAULT
  0
POLYLINE
  5
527
  8
DEFAULT
 66
     1
 10
0.0
 20
0.0
 30
0.0
 70
     1
  0
VERTEX
  5
528
  8
DEFAULT
 10
41.05052354363315
 20
210.2209377882953
 30
0.0
 42
-0.6249999999999404
  0
VERTEX
  5
529
  8
DEFAULT
 10
40.05052354363315
 20
209.2209377882953
 30
0.0
  0
VERTEX
  5
52A
  8
DEFAULT
 10
32.05052354363315
 20
209.2209377882953
 30
0.0
 42
-0.6249999999999185
  0
VERTEX
  5
52B
  8
DEFAULT
 10
31.05052354363317
 20
210.2209377882953
 30
0.0
 42
0.6249999999999992
  0
VERTEX
  5
52C
  8
DEFAULT
 10
30.05052354363314
 20
211.2209377882953
 30
0.0
  0
VERTEX
  5
52D
  8
DEFAULT
 10
17.05052354363318
 20
211.2209377882953
 30
0.0
 42
0.6249999999999755
  0
VERTEX
  5
52E
  8
DEFAULT
 10
16.05052354363309
 20
210.2209377882953
 30
0.0
 42
-0.6249999999999404
  0
VERTEX
  5
52F
  8
DEFAULT
 10
15.05052354363314
 20
209.2209377882953
 30
0.0
  0
VERTEX
  5
530
  8
DEFAULT
 10
7.050523543633162
 20
209.2209377882953
 30
0.0
 42
-0.62499999999993
  0
VERTEX
  5
531
  8
DEFAULT
 10
6.050523543633193
 20
210.2209377882953
 30
0.0
 42
0.6249999999999722
  0
VERTEX
  5
532
  8
DEFAULT
 10
5.050523543633129
 20
211.2209377882953
 30
0.0
  0
VERTEX
  5
533
  8
DEFAULT
 10
-1.949476456366881
 20
211.2209377882953
 30
0.0
 42
0.624999999999977
  0
VERTEX
  5
534
  8
DEFAULT
 10
-2.949476456366873
 20
210.2209377882953
 30
0.0
  0
VERTEX
  5
535
  8
DEFAULT
 10
-2.949476456366853
 20
205.2209377882953
 30
0.0
  0
VERTEX
  5
536
  8
DEFAULT
 10
0.0505235436331475
 20
205.2209377882953
 30
0.0
  0
VERTEX
  5
537
  8
DEFAULT
 10
0.0505235436331475
 20
202.2209377882953
 30
0.0
  0
VERTEX
  5
538
  8
DEFAULT
 10
21.05052354363314
 20
202.2209377882953
 30
0.0
  0
VERTEX
  5
539
  8
DEFAULT
 10
21.05052354363315
 20
205.2209377882953
 30
0.0
  0
VERTEX
  5
53A
  8
DEFAULT
 10
24.05052354363315
 20
205.2209377882953
 30
0.0
  0
VERTEX
  5
53B
  8
DEFAULT
 10
24.05052354363314
 20
202.2209377882953
 30
0.0
  0
VERTEX
  5
53C
  8
DEFAULT
 10
45.65052354363315
 20
202.2209377882953
 30
0.0
  0
VERTEX
  5
53D
  8
DEFAULT
 10
45.65052354363315
 20
205.2209377882953
 30
0.0
  0
VERTEX
  5
53E
  8
DEFAULT
 10
48.65052354363315
 20
205.2209377882953
 30
0.0
  0
VERTEX
  5
53F
  8
DEFAULT
 10
48.65052354363315
 20
210.2209377882953
 30
0.0
 42
0.6250000000000133
  0
VERTEX
  5
540
  8
DEFAULT
 10
47.65052354363313
 20
211.2209377882953
 30
0.0
  0
VERTEX
  5
541
  8
DEFAULT
 10
42.05052354363315
 20
211.2209377882953
 30
0.0
 42
0.6249999999999597
  0
SEQEND
  5
542
  8
DEFAULT
  0
POLYLINE
  5
543
  8
DEFAULT
 66
     1
 10
0.0
 20
0.0
 30
0.0
 70
     1
  0
VERTEX
  5
544
  8
DEFAULT
 10
-17.00000000000001
 20
209.2209377882953
 30
0.0
  0
VERTEX
  5
545
  8
DEFAULT
 10
-25.0
 20
209.2209377882953
 30
0.0
 42
-0.6250000000001171
  0
VERTEX
  5
546
  8
DEFAULT
 10
-26.00000000000002
 20
210.2209377882953
 30
0.0
 42
0.6249999999999997
  0
VERTEX
  5
547
  8
DEFAULT
 10
-26.99999999999997
 20
211.2209377882953
 30
0.0
  0
VERTEX
  5
548
  8
DEFAULT
 10
-40.0
 20
211.2209377882953
 30
0.0
 42
0.6249999999999818
  0
VERTEX
  5
549
  8
DEFAULT
 10
-41.00000000000002
 20
210.2209377882953
 30
0.0
 42
-0.6250000000001811
  0
VERTEX
  5
54A
  8
DEFAULT
 10
-42.00000000000001
 20
209.2209377882953
 30
0.0
  0
VERTEX
  5
54B
  8
DEFAULT
 10
-50.00000000000002
 20
209.2209377882953
 30
0.0
 42
-0.624999999999973
  0
VERTEX
  5
54C
  8
DEFAULT
 10
-50.9999999999999
 20
210.2209377882952
 30
0.0
 42
0.6249999999999626
  0
VERTEX
  5
54D
  8
DEFAULT
 10
-52.00000000000003
 20
211.2209377882953
 30
0.0
  0
VERTEX
  5
54E
  8
DEFAULT
 10
-62.00000000000003
 20
211.2209377882953
 30
0.0
 42
0.6249999999999507
  0
VERTEX
  5
54F
  8
DEFAULT
 10
-63.00000000000004
 20
210.2209377882953
 30
0.0
  0
VERTEX
  5
550
  8
DEFAULT
 10
-62.99999999999998
 20
201.2209377882953
 30
0.0
 42
0.6250000000000339
  0
VERTEX
  5
551
  8
DEFAULT
 10
-61.99999999999999
 20
200.2209377882953
 30
0.0
  0
VERTEX
  5
552
  8
DEFAULT
 10
-61.0
 20
200.2209377882953
 30
0.0
 42
0.625000000000009
  0
VERTEX
  5
553
  8
DEFAULT
 10
-59.99999999999999
 20
201.2209377882953
 30
0.0
  0
VERTEX
  5
554
  8
DEFAULT
 10
-60.0
 20
207.2209377882953
 30
0.0
  0
VERTEX
  5
555
  8
DEFAULT
 10
-57.0
 20
207.2209377882953
 30
0.0
  0
VERTEX
  5
556
  8
DEFAULT
 10
-57.0
 20
204.2209377882953
 30
0.0
  0
VERTEX
  5
557
  8
DEFAULT
 10
-36.0
 20
204.2209377882953
 30
0.0
  0
VERTEX
  5
558
  8
DEFAULT
 10
-36.0
 20
207.2209377882953
 30
0.0
  0
VERTEX
  5
559
  8
DEFAULT
 10
-33.0
 20
207.2209377882953
 30
0.0
  0
VERTEX
  5
55A
  8
DEFAULT
 10
-33.0
 20
204.2209377882953
 30
0.0
  0
VERTEX
  5
55B
  8
DEFAULT
 10
-11.4
 20
204.2209377882953
 30
0.0
  0
VERTEX
  5
55C
  8
DEFAULT
 10
-11.4
 20
207.2209377882953
 30
0.0
  0
VERTEX
  5
55D
  8
DEFAULT
 10
-8.399999618530273
 20
207.2209377882953
 30
0.0
  0
VERTEX
  5
55E
  8
DEFAULT
 10
-8.399999618530272
 20
201.2209377882953
 30
0.0
 42
0.6250000000000734
  0
VERTEX
  5
55F
  8
DEFAULT
 10
-7.399999618530286
 20
200.2209377882953
 30
0.0
  0
VERTEX
  5
560
  8
DEFAULT
 10
-6.399999618530276
 20
200.2209377882953
 30
0.0
 42
0.6249999999999937
  0
VERTEX
  5
561
  8
DEFAULT
 10
-5.399999618530273
 20
201.2209377882953
 30
0.0
  0
VERTEX
  5
562
  8
DEFAULT
 10
-5.399999618530277
 20
210.2209377882953
 30
0.0
 42
0.6249999999999926
  0
VERTEX
  5
563
  8
DEFAULT
 10
-6.399999618530274
 20
211.2209377882953
 30
0.0
  0
VERTEX
  5
564
  8
DEFAULT
 10
-14.99999999999999
 20
211.2209377882953
 30
0.0
 42
0.624999999999904
  0
VERTEX
  5
565
  8
DEFAULT
 10
-16.0
 20
210.2209377882953
 30
0.0
 42
-0.6250000000000925
  0
SEQEND
  5
566
  8
DEFAULT
  0
ENDSEC
  0
EOF
